# Blender 4.2.3 LTS
# www.blender.org
mtllib Blue Mushroom.mtl
o Mesh_0
v -0.250082 0.102641 0.098362
v -0.210460 0.126929 0.230859
v -0.315019 0.141125 -0.194702
v -0.466312 0.181583 -0.256729
v 0.098481 -0.074878 -0.078756
v -0.511181 0.181401 0.033873
v 0.290512 0.095205 0.309346
v -0.124106 0.188205 -1.000434
v -0.114898 0.186832 0.996780
v -0.084322 0.027047 0.193406
v -0.002972 0.104499 0.206690
v -0.319849 0.141087 0.200103
v 0.407922 0.097828 -0.045745
v -0.539620 0.211914 0.098193
v 0.211563 0.337003 0.428063
v 0.793286 0.170720 0.003668
v 0.083030 -0.120543 0.004568
v 0.368588 0.092351 0.133866
v 0.082539 0.062782 -0.003869
v -0.180311 0.435953 -0.336841
v 0.082804 0.511006 0.169356
v -0.029731 0.571888 0.093895
v 0.589201 0.042758 0.264450
v -0.234063 0.556164 -0.090764
v 0.047592 -0.561597 0.131329
v 0.042315 -0.226518 0.004560
v -0.314484 -0.205279 -0.049508
v -0.039595 0.377264 -0.485676
v -0.378306 0.476422 0.069679
v -0.655167 0.197476 0.270229
v -0.609219 0.233036 -0.858772
v -0.669384 0.195474 -0.251706
v -0.055458 -0.399420 0.169896
v -0.267837 0.170413 -0.457503
v 0.072706 0.086759 -0.170290
v -0.080693 0.110050 0.272251
v -0.194373 -0.087669 -0.275635
v -0.166490 0.009387 -0.194151
v 0.793522 0.059134 -0.104011
v 0.067421 0.035819 0.078242
v 0.414008 0.108724 0.799038
v -0.027167 0.383934 0.452569
v -0.128378 -0.201028 -0.190459
v -0.141569 0.584622 -0.000444
v -0.717589 0.390299 0.364180
v 0.104191 0.407190 0.304666
v -0.035435 0.523945 0.219396
v -0.880525 0.350436 0.403738
v -0.058267 -0.563441 -0.238335
v 0.756246 0.177770 0.152448
v -0.120310 0.543070 0.193398
v -0.157566 -0.536304 -0.260003
v -0.038093 0.576433 -0.082538
v 0.154286 0.495790 -0.089977
v -0.495896 0.419532 -0.295234
v -0.379119 -0.533939 0.169850
v -0.084674 -0.711187 0.236856
v -0.084959 -0.710401 -0.239513
v 0.063265 -0.723913 -0.076082
v 0.144936 0.510079 0.053046
v -0.272070 0.262764 -0.911140
v 0.508796 0.070207 -0.318983
v 0.291682 0.370566 0.042655
v -1.035556 0.293260 0.356471
v -1.080656 0.287091 -0.005571
v 0.361672 0.324736 0.218855
v 0.779149 0.066395 0.248649
v -0.221068 0.174929 -0.456461
v -0.702442 0.204374 0.061836
v -0.082972 -0.111941 -0.272349
v -0.382044 0.177960 0.674633
v -0.451210 0.155862 -0.004028
v -0.218978 -0.084056 0.253024
v -0.803165 0.212061 -0.174590
v -0.469764 0.431782 0.204335
v 0.611718 0.236949 0.217332
v -0.292491 -0.685082 0.241277
v -0.151436 -0.405799 0.208559
v -0.415660 0.443973 -0.186829
v 0.497540 0.241529 0.460961
v -0.395887 0.218887 -0.945472
v -0.391275 -0.675099 0.186137
v -0.161189 -0.547206 0.259647
v 0.046708 -0.566049 -0.135859
v -0.230595 0.557359 0.088072
v -0.818292 0.397308 0.196704
v -0.315777 -0.003212 -0.074455
v -0.266170 -0.535410 -0.250530
v -0.274305 -0.206223 0.111333
v 0.129589 0.120168 0.799662
v 0.266646 0.244940 -0.758975
v -0.053247 0.288774 -0.841872
v -0.428299 -0.513121 -0.068368
v 0.226300 0.064187 0.161235
v 0.258318 0.376738 -0.145435
v -0.076429 -0.136245 0.180438
v 0.009493 0.116846 -0.791091
v 0.236145 0.386267 0.174007
v 0.185818 0.113782 -0.539008
v -0.547434 0.193711 0.302723
v -1.079663 0.299641 0.110058
v 0.434357 0.097068 -0.683880
v -0.528404 0.200157 -0.782263
v 0.351499 0.080456 -0.478227
v 0.285336 0.071449 0.024315
v -0.174731 0.156311 0.866413
v -0.255627 -0.110106 0.116598
v -0.349499 -0.353311 -0.053620
v -0.718830 0.211615 0.195902
v -0.116422 0.182917 0.948631
v 0.334691 0.087632 0.720963
v -0.200754 -0.698632 -0.262529
v -0.058783 0.419863 0.359204
v 0.018266 -0.408814 -0.100331
v -0.646821 0.354325 0.605029
v 0.080753 0.000046 -0.043672
v -0.056356 -0.398696 -0.173066
v 0.423581 0.079937 -0.105597
v 0.060544 -0.726303 0.080424
v -0.727079 0.382486 -0.405021
v 0.625909 0.231635 -0.215985
v 0.015057 -0.672594 0.161328
v -0.802166 0.209411 0.175698
v -0.998013 0.306437 -0.389847
v -0.214181 -0.375319 -0.199620
v -0.814142 0.218905 0.136434
v -0.253136 0.408265 0.422078
v -0.688142 0.194351 0.472796
v 0.336394 0.240605 0.699348
v -0.814032 0.241238 0.575397
v -0.117154 0.141007 -0.770606
v -0.094928 -0.086460 0.279293
v 0.878959 0.071710 0.232371
v -0.708327 0.230439 0.682337
v 0.078315 0.189795 -0.968221
v 0.663552 0.056471 0.348934
v -0.473726 0.171669 -0.654952
v 0.014118 -0.117380 -0.226332
v -0.518272 0.187489 -0.589353
v 0.020878 -0.193722 -0.076319
v -0.149626 -0.409082 -0.211650
v 0.849539 0.064509 -0.298172
v -0.862740 0.226041 0.306695
v 0.360283 0.088839 -0.154143
v -0.293683 -0.680766 -0.243902
v -0.191399 -0.703212 0.000274
v 0.502009 0.070994 0.083510
v 0.022437 -0.242652 0.080517
v -0.909527 0.382288 0.004873
v -1.034303 0.333009 0.144572
v 0.127781 0.096836 0.074099
v -0.375999 -0.525589 -0.173581
v 0.784651 0.103452 0.437125
v -0.057756 -0.566973 0.235912
v 0.195362 0.088249 -0.007573
v 0.887641 0.104246 -0.002350
v 0.867803 0.076667 -0.263266
v 0.714812 0.036510 -0.166351
v 0.536528 0.065698 0.343852
v -0.276919 -0.074709 0.146368
v -0.513155 0.181875 0.732291
v 0.186794 0.135277 -0.894974
v 0.442466 0.213950 -0.657673
v 0.752290 0.078487 -0.433920
v 0.077394 -0.574850 0.045108
v -0.174955 0.436522 0.333958
v 0.015408 -0.088386 -0.219246
v 0.634092 0.043171 -0.012509
v -0.255390 -0.126471 -0.113679
v 0.038826 -0.138222 -0.088791
v -0.215186 -0.411047 0.210086
v -0.521957 0.442063 0.002278
v -0.818766 0.397951 -0.194107
v -0.356498 -0.360690 0.042456
v -0.566194 0.202319 0.659954
v -0.623769 0.199209 -0.319442
v -0.167268 0.306620 0.819778
v -0.336781 -0.264336 0.028917
v 0.141102 -0.126701 -0.008220
v 0.271072 0.100835 0.496644
v -0.923097 0.233290 -0.090668
v -0.392751 0.313406 0.803806
v -0.366817 -0.068522 0.109959
v -0.134955 -0.085307 -0.247432
v -0.453403 -0.666610 0.066238
v -0.296357 0.133142 0.009562
v -0.058616 0.420637 -0.360587
v 0.064282 -0.663375 0.048475
v 0.586450 0.042094 -0.269599
v -0.303836 0.448009 0.266761
v 0.017037 -0.414945 0.100379
v -0.302741 -0.104622 -0.043588
v 0.008519 0.121656 0.819797
v -0.911955 0.235549 0.068746
v -0.391947 -0.674110 -0.186850
v 0.056505 -0.130954 0.094240
v -0.233359 -0.081042 -0.220152
v -0.534414 0.198402 0.224774
v -0.163849 0.313266 -0.797353
v -0.876084 0.351140 -0.407800
v 0.077606 -0.573647 -0.046087
v -0.279741 -0.535578 0.243097
v 0.035496 -0.114900 -0.137795
v -0.204155 -0.698010 0.260792
v 0.126724 0.079179 -0.127841
v 0.248055 0.071738 -0.111080
v 0.720576 0.055339 -0.244984
v 0.244999 0.083987 0.566117
v 0.344809 0.088329 -0.569599
v 0.005700 -0.719695 -0.174305
v -0.453874 -0.666698 -0.066489
v -0.646337 0.355930 -0.595889
v -0.059621 0.289415 0.840449
v 0.075981 0.514818 -0.170629
v 0.262948 0.108774 -0.443396
v 0.088756 -0.134746 -0.123468
v -0.000112 0.102563 0.349917
v -0.034882 -0.208005 -0.140209
v -0.433748 -0.518012 0.055110
v -0.812088 0.218924 0.396754
v -0.382141 0.473161 -0.074649
v 0.402735 0.084872 0.619703
v 0.828313 0.060219 -0.174938
v -0.041520 0.531203 -0.212768
v 0.203849 0.342067 -0.417509
v 0.067989 0.193853 0.963352
v 0.180685 0.097880 -0.761204
v 0.456268 0.301312 -0.002600
v 0.253884 0.231651 0.797022
v -0.685557 0.291772 0.750955
v 0.612917 0.252176 0.005479
v -0.867762 0.290122 0.620808
v -0.407926 0.314716 -0.801269
v -0.641834 0.236154 -0.757919
v -0.316053 0.154424 -0.700882
v -0.047143 -0.212214 0.150444
v 0.045907 -0.414847 -0.001555
v 0.103408 -0.068139 0.033897
v 0.030633 -0.113830 0.132427
v -0.986593 0.271919 0.282661
v -0.936387 0.264707 0.377462
v 0.120803 0.398603 -0.310006
v 0.012187 -0.036737 0.164488
v 0.547424 0.102117 -0.708808
v 0.773192 0.162306 0.248168
v 0.103343 0.114915 -0.666021
v 0.645452 0.178546 0.469418
v 0.098383 -0.134351 0.122225
v -0.704734 0.250974 0.798115
v -0.226378 0.164860 0.791493
v 0.333048 0.336045 -0.209418
v -0.565548 0.246522 0.889984
v -0.954912 0.276537 0.501249
v 0.257582 0.106505 -0.735948
v 0.722904 0.037443 0.162492
v -0.336412 0.169388 -0.811940
v -0.422742 0.205690 -0.861421
v 0.820585 0.062032 0.111221
v 0.780701 0.073823 0.466851
v 0.091102 0.080071 0.266778
v -0.300898 -0.086322 0.048415
v -0.018999 -0.141244 0.140959
v -0.085981 -0.091712 -0.280543
v 0.645061 0.090783 -0.618363
v 0.012921 -0.049711 -0.177355
v -0.752117 0.297533 -0.701314
v -0.870689 0.291044 -0.617973
v -0.211466 -0.032370 -0.214462
v -0.408883 0.173363 -0.518219
v -0.375153 -0.072265 -0.045031
v -0.530846 0.188484 -0.044862
v -0.461687 0.211983 0.838843
v -0.436176 0.412023 0.358125
v 0.277083 0.158443 0.920100
v 0.213306 0.131568 0.884137
v 0.105693 -0.124258 -0.131514
v 0.480095 0.131319 -0.807777
v 0.076445 -0.066919 0.112955
v 0.259532 0.105006 0.732122
v -0.191260 -0.106468 0.174423
v -0.278171 0.082310 0.038058
v -0.546561 0.195914 0.388396
v 0.123275 0.132726 -0.467110
v -1.005394 0.273494 0.164721
v -0.038719 -0.140476 -0.162112
v -0.291501 -0.015757 0.114716
v -0.905859 0.243545 -0.159475
v -0.321776 -0.002658 0.031697
v 0.784320 0.103633 -0.441260
v -0.811504 0.223770 -0.352467
v 0.309128 0.144337 -0.923749
v -0.329981 -0.066279 -0.047426
v -0.148134 0.133790 0.661645
v 0.894144 0.067047 -0.019857
v 0.675604 0.050288 0.222866
v -0.792168 0.233374 0.464913
v -0.807254 0.240393 -0.578928
v -0.316313 0.240319 0.945050
v 0.631335 0.115586 0.678317
v 0.637922 0.087977 -0.560577
v -0.568043 0.247372 -0.889982
v 0.458554 0.060530 0.583018
v 0.642656 0.180790 -0.467295
v 0.164017 0.100195 0.347413
v -0.990497 0.271320 -0.019556
v -0.637384 0.203993 0.523668
v 0.044993 0.140815 -0.472185
v 0.646112 0.061965 -0.387067
v -0.183919 0.166272 -0.895381
v -0.110429 0.142703 -0.481109
v -0.623119 0.191624 -0.594657
v -0.946935 0.267340 -0.373084
v -0.361120 -0.035004 0.077162
v 0.078324 0.124501 0.483709
v 0.133710 0.103532 0.611893
v 0.320762 0.123365 -0.812367
v 0.006649 -0.104749 0.234937
v 0.066614 0.556382 -0.012547
v 0.186660 0.120225 -0.424773
v -0.191072 0.137855 0.327563
v -0.735324 0.253591 -0.772418
v -0.680526 0.205944 -0.048949
v -0.660788 0.215224 -0.114964
v 0.038292 0.141984 0.466921
v -0.232566 0.139570 -0.314392
v -0.085728 0.141430 0.705564
v 0.527588 0.072473 0.509508
v 0.647681 0.109738 -0.668165
v 0.427531 0.112476 0.860207
v -0.307737 0.447014 -0.267604
v -0.124498 0.185742 -0.957214
v -0.484179 0.195523 -0.343910
v -1.024678 0.336676 -0.146176
v -0.142999 0.135623 -0.633916
v -0.007095 0.122374 0.606393
v -0.874014 0.232101 -0.032787
v -0.068378 -0.117704 0.248424
v 0.635389 0.087964 0.583314
v -0.354212 0.152188 -0.075411
v -0.369786 0.176922 0.449467
v -0.359923 0.139330 -0.264786
v 0.034395 0.078899 -0.167998
v -0.317026 0.146118 -0.332099
v -0.325819 0.149303 0.335075
v -0.387836 0.191954 -0.364882
v -0.452648 0.157865 0.206467
v -0.039636 0.111066 -0.233627
v -0.386817 0.149483 0.200177
v -0.389903 0.192791 0.363235
v -0.326154 0.175620 0.539649
v -0.334876 0.158478 0.760795
v -0.254374 0.158738 -0.596398
v -0.004143 0.145974 -0.901076
v 0.084716 0.085117 0.176008
v 0.039817 0.078557 0.169288
v 0.202121 0.063951 0.218073
v -0.277503 -0.073804 0.216953
v -0.391823 0.150552 -0.203520
v -0.251776 0.158580 0.590557
v -0.464212 0.158664 -0.129497
v -0.432048 0.185148 0.334492
v -0.356805 0.153084 0.068076
v -0.450526 0.156880 -0.210569
v -0.307662 0.211572 0.980172
v -0.363986 0.141804 0.276068
v 0.313501 0.090793 -0.258337
v 0.430253 0.068623 0.321088
v 0.008994 0.101967 -0.193262
v -0.009962 0.073998 0.160240
v -0.456452 0.158535 0.115472
v -0.083233 0.026176 -0.196317
v 0.073574 0.066212 -0.095720
v -0.205023 0.155042 -0.698620
v 0.535655 0.071253 -0.502893
v -0.526432 0.194626 0.150870
v 0.031031 0.046577 0.131186
v -0.082509 0.088999 0.215931
v -0.520648 0.199371 -0.185276
v -0.223768 0.132718 -0.262288
v -0.246101 0.103540 -0.113570
v -0.163523 0.136831 0.236265
v 0.066455 -0.127537 0.178223
v 0.000012 0.102140 -0.350970
v 0.185384 0.150111 0.968569
v -0.531207 0.199412 -0.227923
v -0.110689 0.142180 0.472607
v -0.078914 0.068552 -0.203137
v -0.188254 0.100522 -0.194924
v 0.181526 0.097460 0.769357
v -0.648912 0.214360 0.111556
v 0.043731 0.025403 -0.119490
v -0.560056 0.202336 0.006402
v -0.308392 0.193986 -0.436104
v 0.502934 0.065385 -0.163312
v -0.453239 0.175726 0.250491
v -0.832873 0.250083 -0.490407
v -0.438382 0.195098 -0.459355
v -0.150423 0.212404 -0.992491
v 0.151753 0.083736 -0.271944
v 0.206403 0.059657 -0.220137
v -0.308800 0.193629 0.430948
v -0.316352 0.206569 0.935048
v -0.132016 -0.127304 0.190803
v -0.163092 -0.109460 -0.195849
v -0.797452 0.219138 -0.401785
v 0.073574 0.122579 -0.465031
v 0.367084 0.099771 -0.775041
v -0.312432 -0.355733 0.128533
v -0.185824 -0.071427 0.274470
v 0.344611 0.083150 0.458464
v -1.064431 0.290295 -0.110593
v 0.787126 0.041762 -0.005168
v -0.268743 0.169339 0.461699
v 0.184862 0.114180 0.537325
v 0.057543 -0.132918 -0.013474
v -0.691604 0.195653 -0.478869
v -0.967852 0.266257 -0.234376
v 0.225925 0.064474 -0.165035
v 0.048310 0.163541 -0.984890
v 0.375108 0.096361 -0.235642
v -0.604449 0.235515 0.850595
v 0.240986 0.082788 -0.555957
v 0.249535 0.072321 0.103832
v 0.133443 -0.118074 0.058672
v 0.064785 -0.662826 -0.049390
v 0.077505 0.005964 0.045174
v -0.378609 -0.050352 -0.082807
v -0.653387 0.206653 -0.536405
v -0.859635 0.272741 0.633856
v -0.779949 0.250048 0.632902
v -0.819686 0.266002 -0.684306
v -0.548187 0.196322 -0.147809
v -0.152875 0.133681 -0.229983
v -0.291422 -0.075397 -0.208157
v -0.124338 0.123126 0.363328
v 0.178372 0.145215 0.954712
v -0.123966 0.207484 0.991606
v 0.081423 0.080641 -0.271084
v -0.185468 0.077509 0.179248
v 0.376508 0.093842 0.041538
v 0.168298 0.099041 -0.350995
v 0.470527 0.078303 0.005459
v 0.238195 0.137723 -0.949546
v 0.550972 0.102419 0.703747
v -0.164303 0.163414 0.467068
v -0.226114 0.178664 0.449007
v 0.121312 0.132751 0.469168
v -0.486697 0.182812 0.423812
v 0.748595 0.078095 0.423242
v -0.263608 0.145548 0.327915
v -0.051195 0.136463 -0.444869
v 0.316435 0.099047 -0.316712
v -0.201257 -0.014321 0.199152
v 0.405650 0.076733 0.103654
v 0.760153 0.168655 -0.235515
v -0.132239 0.529724 -0.214800
v 0.847419 0.066187 0.295699
v 0.489559 0.130645 0.797300
v -0.135194 -0.085470 0.242960
v 0.395716 0.079388 0.369214
v 0.019494 -0.306572 -0.099035
v 0.383134 0.080327 -0.366395
v -0.613937 0.190031 0.579663
v 0.459755 0.060708 -0.588796
v 0.493453 0.245727 -0.449123
v -0.176307 -0.071337 -0.280534
v 0.712658 0.082560 0.588140
v 0.181169 0.119742 0.426139
v -0.057895 0.159720 0.509563
v -0.202949 -0.208677 -0.171575
v 0.099036 0.082936 0.107228
v 0.301645 0.064339 -0.061604
v -0.008372 0.123808 -0.597354
v 0.642196 0.040651 0.034114
v -0.426025 0.181294 -0.337102
v -0.271798 0.093990 -0.046286
v -0.287812 0.197327 -0.900131
v -0.455875 0.192229 0.483280
v -0.022772 0.142800 0.491044
v -0.082386 0.110372 -0.278429
v 0.521713 0.062548 -0.058590
v -0.366859 0.179139 -0.671320
v -0.063316 0.157380 -0.520321
v -0.161834 0.166631 -0.473444
v 0.364044 0.093625 0.217083
v -0.183866 0.156082 0.595086
v 0.742330 0.078032 -0.545010
v -0.243854 0.408303 -0.424045
v -0.539370 0.212204 -0.099196
v 0.021772 0.148881 0.912881
v -0.310514 -0.354030 -0.132524
v -0.254483 -0.080509 -0.152087
v -0.124867 0.123571 -0.363108
v 0.025025 -0.153638 0.082182
v 0.548033 0.049177 -0.427881
v 0.595497 0.050773 0.461518
v -0.146316 -0.088537 0.280203
v -0.004669 0.054509 -0.146549
v 0.229264 0.118984 0.416556
v -0.203518 -0.212809 0.168905
v 0.486802 0.106595 -0.815321
v -0.334227 0.222438 -0.974006
v 0.323489 0.097933 0.283699
v -1.073203 0.310991 -0.141480
v -0.133424 -0.228977 0.191476
v -0.087064 -0.126500 -0.201366
v -0.007435 -0.719043 0.186007
v 0.117918 0.094771 -0.080404
v -0.980173 0.282461 -0.457128
v -0.886597 0.233114 -0.304408
v -1.050857 0.289897 -0.272265
v -0.351362 0.171865 -0.406175
v -0.193201 0.052136 -0.178218
vn -0.1724 -0.9815 0.0836
vn -0.8122 -0.4294 0.3948
vn -0.1014 -0.9508 0.2929
vn 0.1056 -0.9648 0.2408
vn 0.0291 -0.8339 0.5512
vn 0.5873 -0.5195 0.6207
vn 0.1859 0.1518 -0.9708
vn 0.4948 -0.5961 -0.6324
vn 0.0068 -0.7765 -0.6300
vn 0.1585 0.8509 0.5009
vn 0.4225 0.8234 0.3789
vn 0.1522 0.9679 0.1999
vn -0.0973 0.9953 0.0038
vn -0.0854 0.9013 0.4246
vn 0.3693 0.9291 -0.0222
vn -0.0550 0.4348 -0.8989
vn -0.5466 0.0859 -0.8330
vn 0.2321 0.2481 -0.9405
vn 0.1051 -0.9941 -0.0266
vn 0.8514 -0.5221 -0.0496
vn 0.1003 -0.9949 -0.0066
vn 0.3365 0.8570 0.3903
vn 0.1423 0.9497 0.2790
vn 0.2724 0.9349 0.2274
vn 0.1362 0.8697 -0.4744
vn 0.4066 0.8307 -0.3802
vn 0.3478 0.8637 -0.3646
vn 0.4955 0.8651 0.0777
vn 0.5062 0.8624 0.0084
vn 0.3537 0.9353 -0.0001
vn 0.5638 0.8153 0.1323
vn 0.3529 0.9274 0.1239
vn 0.5173 -0.7050 -0.4851
vn 0.2217 -0.6913 -0.6877
vn 0.4695 0.1248 -0.8741
vn 0.1045 -0.9944 0.0183
vn 0.4399 -0.8740 0.2062
vn 0.0999 -0.9950 0.0084
vn 0.1396 0.9522 -0.2718
vn 0.1201 0.8865 -0.4469
vn -0.6141 0.6101 0.5007
vn -0.7357 0.6357 0.2337
vn -0.6934 -0.2834 0.6625
vn 0.3070 0.9050 0.2945
vn -0.0046 -0.9809 0.1944
vn 0.0354 -0.9991 -0.0236
vn -0.0274 -0.9970 -0.0718
vn -0.9899 -0.0981 0.1026
vn -0.9419 -0.0586 0.3306
vn -0.4863 0.8694 0.0881
vn 0.3401 0.9202 0.1938
vn 0.7308 0.1582 -0.6640
vn 0.4334 0.8723 -0.2264
vn 0.7730 0.5407 -0.3319
vn 0.1091 0.8863 0.4501
vn -0.0621 -0.9936 0.0941
vn -0.1905 -0.9810 -0.0365
vn -0.2969 -0.9503 -0.0938
vn -0.3243 0.9254 0.1961
vn 0.9810 0.1228 -0.1500
vn 0.8171 -0.5765 -0.0062
vn 0.9771 0.1514 0.1492
vn -0.8147 -0.5490 0.1867
vn -0.9319 0.2984 0.2061
vn -0.8165 -0.5462 -0.1868
vn -0.2031 0.9756 -0.0834
vn -0.1439 0.9750 -0.1691
vn -0.2882 0.9351 -0.2064
vn 0.0441 0.5852 0.8097
vn 0.1372 0.9138 0.3823
vn 0.0470 0.9317 0.3601
vn -0.2111 -0.2653 0.9408
vn -0.0512 0.8239 0.5644
vn -0.4393 0.0854 0.8943
vn -0.1975 -0.9775 0.0747
vn -0.3213 -0.8429 0.4316
vn -0.3381 -0.9201 0.1979
vn -0.2146 -0.9757 -0.0437
vn -0.0550 -0.9984 -0.0107
vn -0.0565 -0.9984 -0.0008
vn -0.2063 0.9749 0.0839
vn -0.1787 0.9839 -0.0043
vn -0.3633 0.9232 -0.1257
vn -0.3577 0.9271 0.1122
vn 0.5123 0.8483 -0.1337
vn -0.2721 0.9623 0.0014
vn 0.2394 -0.6777 0.6953
vn -0.2392 -0.4713 0.8489
vn 0.0585 0.0290 0.9979
vn -0.0014 -0.5020 -0.8649
vn -0.2348 0.0865 -0.9682
vn 0.0159 0.6055 -0.7957
vn 0.8430 0.5378 0.0098
vn 0.9792 0.0153 -0.2021
vn -0.2936 -0.9559 0.0125
vn -0.1708 -0.9853 -0.0022
vn -0.0769 -0.9960 0.0451
vn -0.4547 0.1039 0.8846
vn -0.7435 -0.3030 0.5961
vn -0.7441 0.1709 0.6459
vn -0.1987 0.9292 0.3115
vn -0.7012 0.3123 -0.6409
vn -0.2996 0.2545 -0.9195
vn -0.7106 0.2597 -0.6540
vn -0.1412 0.9542 0.2636
vn -0.0813 0.9795 0.1844
vn -0.1339 0.9787 0.1559
vn 0.5342 0.8445 0.0397
vn 0.4976 0.8350 0.2350
vn 0.6999 -0.7142 0.0092
vn 0.7762 -0.4566 0.4349
vn 0.9984 -0.0533 0.0170
vn -0.3038 0.9296 0.2087
vn -0.1681 -0.9848 0.0449
vn -0.0964 0.9843 -0.1475
vn -0.6346 -0.5505 -0.5425
vn -0.3765 -0.4865 -0.7884
vn -0.0716 -0.6643 -0.7440
vn -0.4038 0.9117 -0.0760
vn -0.0044 -0.9918 0.1278
vn -0.0208 -0.9992 0.0340
vn 0.2286 -0.9704 0.0779
vn 0.3516 0.9276 -0.1260
vn 0.2716 0.9356 -0.2256
vn -0.0040 0.9663 0.2575
vn -0.0423 0.8971 0.4397
vn -0.3536 0.2163 0.9100
vn -0.7071 0.3293 0.6258
vn -0.7365 0.2641 0.6228
vn 0.8693 -0.1416 -0.4736
vn 0.9905 0.1373 0.0016
vn -0.3277 0.9239 -0.1977
vn -0.1971 0.9293 -0.3125
vn 0.3459 0.9383 -0.0015
vn 0.7901 -0.0460 0.6112
vn 0.2329 -0.6880 0.6873
vn 0.4596 -0.6519 0.6031
vn -0.0788 -0.9694 -0.2324
vn -0.0243 -0.9955 -0.0918
vn -0.0162 -0.9880 -0.1537
vn 0.5805 -0.7754 -0.2484
vn 0.3639 0.9255 0.1048
vn -0.0720 -0.9741 0.2143
vn -0.1549 -0.9821 0.1071
vn -0.1566 -0.9872 -0.0293
vn -0.3248 0.2134 -0.9214
vn 0.1427 0.2376 -0.9608
vn 0.0987 0.1933 -0.9762
vn -0.6050 0.5768 0.5489
vn -0.1138 -0.9935 -0.0004
vn 0.4335 0.8705 0.2332
vn 0.6751 0.3457 0.6517
vn 0.1233 0.0133 -0.9923
vn 0.6304 -0.0421 -0.7751
vn 0.5450 0.1672 -0.8216
vn -0.0525 -0.9986 0.0033
vn -0.1427 -0.9865 -0.0804
vn 0.0789 -0.9948 -0.0637
vn -0.0402 -0.9938 0.1036
vn -0.2306 -0.9714 -0.0566
vn -0.0569 -0.9776 0.2026
vn -0.1639 -0.9625 0.2162
vn -0.1353 -0.9710 0.1973
vn 0.0795 0.1624 0.9835
vn 0.4787 0.1080 0.8713
vn 0.1583 0.2405 0.9576
vn 0.8480 0.1667 0.5030
vn 0.9834 0.0313 0.1786
vn 0.4715 -0.5170 -0.7144
vn 0.3549 0.8898 -0.2868
vn 0.2744 0.9009 -0.3362
vn 0.0100 -0.9944 -0.1049
vn -0.1217 -0.9904 0.0662
vn -0.0791 -0.9938 0.0785
vn -0.1975 -0.9797 0.0351
vn -0.2590 -0.9658 -0.0124
vn -0.5918 -0.8059 -0.0203
vn 0.7307 0.5902 0.3433
vn 0.5479 0.8280 0.1189
vn 0.5122 0.6360 0.5772
vn 0.8484 0.0897 -0.5217
vn 0.9818 -0.0638 -0.1790
vn -0.0643 -0.9976 0.0263
vn -0.3122 -0.9500 -0.0078
vn -0.3072 -0.9468 -0.0956
vn -0.2978 -0.9505 -0.0889
vn -0.2758 -0.9611 -0.0138
vn -0.0876 -0.9920 -0.0909
vn -0.1833 -0.9825 -0.0333
vn -0.3712 -0.9173 0.1442
vn -0.3407 -0.9392 0.0428
vn -0.1808 -0.9668 0.1808
vn -0.2994 -0.9539 0.0207
vn -0.3165 -0.9462 0.0674
vn -0.9642 0.1618 0.2101
vn 0.0732 -0.9965 -0.0412
vn -0.0767 -0.9970 -0.0053
vn -0.1144 -0.9881 -0.1025
vn -0.1543 -0.9819 0.1101
vn -0.0571 -0.9937 -0.0960
vn -0.1695 -0.9846 -0.0429
vn -0.7003 -0.3738 -0.6082
vn -0.6158 -0.2277 -0.7542
vn -0.1614 -0.9723 0.1688
vn -0.0874 -0.9944 -0.0599
vn -0.2498 -0.9551 0.1591
vn -0.1419 -0.9798 -0.1408
vn -0.0929 -0.9843 -0.1502
vn -0.0544 -0.9931 -0.1039
vn 0.7092 -0.5391 -0.4544
vn -0.7866 -0.4141 0.4579
vn -0.1270 -0.9913 0.0351
vn -0.2708 0.8555 0.4413
vn -0.1695 -0.9832 -0.0681
vn -0.1496 -0.9830 -0.1066
vn -0.1823 -0.9795 -0.0861
vn -0.6569 -0.4319 0.6181
vn -0.1683 -0.9849 -0.0398
vn -0.2506 -0.9477 -0.1977
vn -0.1989 -0.9792 -0.0397
vn -0.2995 -0.9541 -0.0073
vn -0.2310 -0.9524 0.1989
vn -0.1086 -0.9804 0.1644
vn -0.0999 -0.9950 0.0044
vn -0.1618 -0.8828 -0.4411
vn -0.1650 -0.9764 -0.1391
vn -0.2353 -0.9712 0.0371
vn -0.2721 -0.9590 -0.0792
vn -0.1620 -0.9867 -0.0157
vn -0.2088 -0.9702 -0.1229
vn -0.2187 -0.9627 -0.1590
vn -0.1381 -0.9544 -0.2648
vn 0.0018 -1.0000 -0.0082
vn -0.0691 -0.9976 -0.0016
vn -0.3246 -0.9458 -0.0009
vn -0.3906 -0.9192 0.0505
vn -0.2756 -0.9479 0.1597
vn 0.0740 -0.9950 -0.0673
vn -0.1396 -0.9900 0.0214
vn -0.2551 -0.9657 0.0481
vn 0.0456 -0.8975 -0.4387
vn -0.0303 -0.9801 -0.1964
vn 0.0840 -0.9959 -0.0327
vn -0.0391 -0.9792 -0.1992
vn -0.6872 -0.6773 -0.2628
vn -0.1738 -0.9843 -0.0312
vn -0.0232 -0.9992 -0.0325
vn -0.4900 -0.5782 -0.6523
vn -0.2037 -0.9743 -0.0959
vn 0.0478 -0.4341 -0.8996
vn -0.0077 -0.9680 -0.2508
vn -0.1399 -0.9593 -0.2452
vn -0.1982 -0.9802 -0.0026
vn -0.3459 0.6397 -0.6863
vn -0.1152 -0.9756 -0.1866
vn -0.2366 -0.9693 -0.0661
vn -0.1555 -0.9876 0.0210
vn -0.2825 -0.9426 0.1779
vn -0.0648 -0.9977 -0.0205
vn -0.0215 -0.9994 0.0276
vn -0.1464 -0.9556 0.2557
vn -0.0903 -0.9758 0.1994
vn -0.1181 -0.9866 0.1130
vn -0.0033 -0.9996 -0.0267
vn -0.4653 -0.2876 0.8371
vn -0.0983 -0.9943 0.0418
vn -0.1326 -0.9852 -0.1090
vn -0.2858 -0.9570 -0.0501
vn -0.1797 0.9735 -0.1415
vn 0.4667 -0.8129 -0.3484
vn -0.0170 -0.9776 -0.2096
vn 0.1673 -0.9650 -0.2021
vn 0.7056 -0.6681 0.2360
vn -0.9245 0.1251 -0.3600
vn -0.6900 0.6526 -0.3130
vn -0.6695 -0.3037 -0.6779
vn 0.3723 0.6168 0.6935
vn 0.2708 0.8897 0.3675
vn 0.1864 0.7297 0.6579
vn 0.1124 -0.9937 0.0004
vn -0.0312 -0.9982 0.0509
vn -0.3032 -0.9524 0.0327
vn -0.6055 -0.7919 -0.0794
vn -0.0716 -0.9966 -0.0413
vn -0.1266 -0.9914 -0.0323
vn -0.0257 -0.9977 0.0625
vn 0.0124 -0.9916 0.1285
vn 0.6841 -0.6330 0.3624
vn 0.7278 -0.4598 0.5088
vn -0.2602 -0.9646 0.0441
vn -0.9422 0.3178 -0.1057
vn -0.2506 -0.9405 0.2293
vn -0.0966 -0.9872 -0.1272
vn -0.0891 -0.9934 0.0728
vn 0.0590 -0.9952 0.0777
vn -0.0202 -0.9918 -0.1261
vn 0.1081 -0.9911 -0.0771
vn 0.1671 -0.5432 -0.8228
vn -0.2366 -0.9587 0.1579
vn -0.2331 -0.9634 0.1328
vn 0.1560 -0.9558 -0.2491
vn -0.1527 -0.9701 -0.1886
vn -0.0678 -0.9179 -0.3909
vn -0.7367 0.6659 0.1179
vn -0.0522 0.9285 0.3677
vn 0.9848 0.0448 -0.1679
vn 0.0127 -0.9960 0.0888
vn -0.0697 -0.9973 0.0213
vn 0.0473 -0.9988 0.0081
vn -0.0545 -0.9985 0.0071
vn -0.1192 -0.9780 0.1713
vn -0.0398 -0.5550 0.8309
vn -0.2654 -0.9625 -0.0570
vn -0.1454 0.9793 0.1406
vn -0.0807 -0.9885 0.1276
vn -0.0364 -0.9970 0.0677
vn -0.0074 -0.9909 0.1342
vn 0.1538 -0.9845 -0.0844
vn 0.3221 -0.9438 0.0744
vn 0.5439 -0.0903 0.8343
vn 0.6208 -0.5885 0.5179
vn -0.6789 0.5052 -0.5328
vn -0.0607 0.9270 -0.3700
vn 0.0560 0.9476 -0.3144
vn -0.0083 0.8791 -0.4766
vn -0.0368 -0.9966 0.0735
vn 0.0321 -0.9976 0.0619
vn -0.1623 -0.9861 0.0346
vn -0.1829 -0.9830 0.0174
vn -0.3533 0.5554 0.7528
vn -0.0357 -0.9991 -0.0214
vn -0.0967 -0.9883 0.1176
vn -0.0978 -0.9323 0.3483
vn -0.1672 -0.9740 0.1527
vn -0.0566 -0.9984 -0.0009
vn 0.2325 -0.2242 0.9464
vn -0.0931 -0.9904 -0.1023
vn -0.2270 -0.9699 0.0877
vn -0.2676 -0.9496 0.1632
vn -0.6387 -0.1930 0.7448
vn -0.1411 -0.9671 -0.2116
vn -0.2934 -0.6234 -0.7248
vn -0.2700 -0.9627 -0.0160
vn -0.1607 -0.9821 0.0987
vn -0.4517 -0.6046 0.6561
vn -0.2775 -0.9419 0.1895
vn -0.4170 -0.6616 0.6232
vn -0.1572 -0.9772 0.1426
vn 0.0043 -0.7556 0.6550
vn -0.8114 -0.3954 0.4305
vn 0.9533 -0.2181 0.2090
vn -0.3042 -0.9442 -0.1265
vn 0.4171 -0.4223 0.8048
vn -0.2714 -0.8072 -0.5242
vn -0.1120 -0.9685 -0.2222
vn -0.1948 -0.9806 -0.0212
vn 0.0130 -0.9999 -0.0034
vn -0.3902 -0.6177 -0.6828
vn -0.0859 0.4539 -0.8869
vn 0.3343 0.9242 -0.1847
vn -0.9340 -0.2603 -0.2448
vn -0.2710 -0.9624 -0.0179
vn -0.4784 -0.8154 -0.3258
vn -0.1666 -0.9689 -0.1828
vn -0.1270 -0.9793 0.1574
vn -0.4066 -0.7282 -0.5518
vn -0.3684 0.2493 -0.8956
vn -0.0283 -0.9975 -0.0654
vn -0.1906 -0.9816 -0.0139
vn 0.0248 -0.9990 -0.0377
vn -0.1784 -0.9772 0.1148
vn -0.4566 0.1115 -0.8827
vn -0.2464 -0.9676 0.0552
vn -0.0893 -0.9958 0.0207
vn -0.2254 -0.9729 0.0520
vn -0.2237 -0.9735 -0.0482
vn -0.1387 -0.9727 -0.1861
vn -0.1493 -0.9888 -0.0037
vn -0.1311 -0.9890 -0.0685
vn -0.6648 0.6859 -0.2961
vn 0.2191 0.6532 -0.7248
vn -0.1021 -0.9903 -0.0941
vn -0.0379 -0.9993 0.0036
vn -0.2542 -0.9577 -0.1347
vn -0.1623 -0.9867 -0.0024
vn 0.0098 -0.9288 0.3704
vn 0.0037 -0.9996 -0.0271
vn -0.3258 -0.9307 0.1663
vn 0.0085 -0.9967 0.0807
vn -0.0574 -0.9816 -0.1820
vn 0.5973 0.4657 -0.6530
vn 0.8632 0.4159 -0.2861
vn 0.8339 -0.2522 -0.4910
vn 0.6125 0.3708 0.6981
vn 0.3226 -0.4843 0.8132
vn 0.2099 0.1760 0.9618
vn -0.0794 -0.9952 0.0568
vn -0.2655 -0.9509 -0.1593
vn -0.0398 -0.9570 0.2874
vn -0.9305 -0.2693 -0.2482
vn -0.1525 -0.9870 -0.0514
vn -0.0056 0.9663 -0.2572
vn 0.3641 -0.2838 -0.8871
vn 0.1761 0.0132 0.9843
vn -0.7667 -0.1110 -0.6323
vn 0.4554 0.2153 -0.8639
vn 0.1261 -0.5195 -0.8451
vn -0.0405 -0.9992 -0.0044
vn -0.0353 -0.9707 0.2378
vn -0.9555 -0.1243 0.2674
vn -0.8607 -0.2806 -0.4247
vn -0.1222 -0.9809 0.1511
vn 0.0163 -0.9965 0.0820
vn -0.1178 -0.9789 -0.1671
vn -0.0998 -0.9949 0.0140
vn -0.1242 -0.9888 0.0828
vn -0.6567 -0.7541 0.0014
vn 0.6491 -0.3512 0.6748
vn -0.0565 -0.9984 0.0003
vn -0.0677 -0.9974 -0.0250
vn -0.9466 0.1080 -0.3037
vn -0.1330 -0.5697 0.8110
vn -0.2471 0.2718 0.9301
vn 0.0964 -0.9820 -0.1622
vn -0.2248 -0.9738 -0.0346
vn -0.0814 -0.9871 0.1380
vn -0.0267 -0.9839 0.1769
vn -0.0759 -0.9838 0.1626
vn -0.1530 -0.9870 -0.0498
vn -0.0917 -0.9918 0.0892
vn -0.1339 -0.9703 -0.2016
vn 0.0231 -0.9992 0.0325
vn 0.8872 -0.4590 -0.0465
vn -0.0973 -0.9824 0.1593
vn -0.1506 -0.9886 0.0087
vn 0.9167 -0.2347 0.3234
vn 0.7927 0.3770 0.4790
vn -0.9581 0.2199 0.1836
vn -0.9277 0.2110 -0.3079
vn -0.1026 -0.9873 -0.1216
vn -0.0057 -0.9758 0.2184
vn -0.1375 -0.9897 0.0403
vn 0.0053 -0.9957 -0.0920
vn -0.1692 -0.9851 0.0291
vn 0.4822 0.6622 -0.5736
vn -0.0527 -0.9944 -0.0917
vn 0.9665 -0.0759 0.2452
vn 0.5294 -0.7566 0.3838
vn 0.7515 -0.0549 -0.6575
vn 0.1371 0.9150 -0.3794
vn -0.0025 -0.9878 0.1556
vn 0.5699 0.4328 -0.6985
vn -0.0906 -0.6572 0.7482
vn 0.8872 0.4513 0.0953
vn -0.1758 -0.9834 0.0449
vn 0.1583 -0.9873 0.0097
vn 0.5724 -0.0716 0.8168
vn -0.9158 0.3505 0.1959
vn -0.0740 -0.9579 0.2774
vn -0.1109 -0.9404 0.3214
vn -0.1386 -0.9748 0.1747
vn 0.1618 -0.9672 0.1959
vn -0.0519 0.8988 -0.4353
vn -0.1115 0.8840 -0.4539
vn 0.8790 -0.0215 0.4763
vn -0.2315 0.3145 0.9206
vn 0.1190 0.9761 -0.1819
vn 0.5530 0.1723 0.8152
vn 0.8595 0.1435 -0.4906
vn 0.8530 0.0901 0.5141
vn -0.3429 -0.6336 0.6935
vn -0.6270 -0.5691 0.5320
vn -0.1833 -0.9817 0.0519
vn 0.9807 -0.0563 0.1873
vn 0.7262 -0.6298 -0.2754
vn 0.9099 0.0221 -0.4142
vn -0.0467 -0.9976 -0.0505
vn -0.2895 -0.9545 -0.0709
vn 0.5920 0.7803 -0.2015
vn -0.1324 0.9569 -0.2584
vn -0.2972 0.8500 -0.4349
vn 0.5139 0.8396 -0.1758
vn -0.3044 -0.9495 -0.0766
vn 0.4683 -0.4456 -0.7630
vn -0.2120 -0.9773 -0.0027
vn 0.0064 -0.9950 -0.0994
vn 0.0398 -0.9991 -0.0177
vn -0.1826 -0.9829 0.0250
vn -0.1417 -0.9870 -0.0753
vn -0.8280 -0.5606 -0.0106
vn 0.3731 0.9223 -0.1004
vn -0.0846 -0.9804 -0.1777
vn -0.1938 -0.9695 -0.1497
vn -0.1431 -0.9896 -0.0109
vn 0.0456 -0.9953 0.0852
vn -0.3056 -0.9504 -0.0573
vn -0.2089 -0.9750 0.0752
vn -0.0987 -0.9876 -0.1224
vn -0.0451 -0.9984 0.0352
vn -0.2662 -0.9633 0.0352
vn 0.6917 -0.6692 -0.2715
vn -0.1145 -0.9922 -0.0490
vn -0.2456 -0.9447 -0.2172
vn -0.0151 -0.9753 -0.2204
vn -0.2251 -0.9741 -0.0216
vn -0.1137 -0.9893 -0.0917
vn -0.2426 -0.9603 -0.1378
vn -0.1518 -0.9859 -0.0710
vn 0.0025 -0.9983 -0.0579
vn 0.0728 -0.9913 -0.1099
vn -0.1136 -0.9919 0.0570
vn -0.9102 0.3350 -0.2435
vn -0.9214 0.2977 -0.2496
vt 0.194436 0.201633
vt 0.214923 0.217197
vt 0.189732 0.228561
vt 0.322557 0.570736
vt 0.323847 0.532592
vt 0.328100 0.560152
vt 0.487321 0.611055
vt 0.492920 0.605957
vt 0.492188 0.609863
vt 0.752943 0.303558
vt 0.722751 0.295771
vt 0.750657 0.272568
vt 0.774635 0.246318
vt 0.776972 0.294011
vt 0.724885 0.249694
vt 0.672835 0.655461
vt 0.684925 0.644728
vt 0.680450 0.670576
vt 0.298141 0.473420
vt 0.286209 0.495902
vt 0.274106 0.473151
vt 0.717528 0.327784
vt 0.751854 0.367044
vt 0.690831 0.361289
vt 0.742535 0.197481
vt 0.717363 0.208582
vt 0.698993 0.179252
vt 0.544279 0.311286
vt 0.531075 0.273406
vt 0.578238 0.271552
vt 0.703634 0.268975
vt 0.647463 0.316827
vt 0.234908 0.648038
vt 0.211353 0.647622
vt 0.217087 0.613201
vt 0.243491 0.483682
vt 0.199981 0.494047
vt 0.209179 0.479011
vt 0.731242 0.125997
vt 0.740678 0.159548
vt 0.563236 0.683819
vt 0.567369 0.660670
vt 0.566468 0.692408
vt 0.665823 0.428534
vt 0.227481 0.372703
vt 0.216924 0.340477
vt 0.234623 0.344713
vt 0.557234 0.567338
vt 0.556384 0.629975
vt 0.552734 0.575812
vt 0.618271 0.374663
vt 0.550626 0.102882
vt 0.555959 0.152143
vt 0.524921 0.162137
vt 0.760016 0.339754
vt 0.183716 0.100116
vt 0.187949 0.078988
vt 0.201224 0.145133
vt 0.798144 0.267855
vt 0.460513 0.541743
vt 0.446670 0.528359
vt 0.460185 0.523233
vt 0.611922 0.650466
vt 0.613721 0.613324
vt 0.638310 0.649772
vt 0.931048 0.180885
vt 0.900744 0.130956
vt 0.938900 0.124894
vt 0.788597 0.492340
vt 0.768379 0.463139
vt 0.802852 0.446407
vt 0.835179 0.485046
vt 0.832528 0.479928
vt 0.889516 0.459919
vt 0.075206 0.150679
vt 0.026986 0.141613
vt 0.064671 0.114935
vt 0.320192 0.063305
vt 0.316105 0.111340
vt 0.301861 0.101776
vt 0.943507 0.277887
vt 0.863275 0.237550
vt 0.828965 0.222640
vt 0.830784 0.258639
vt 0.528702 0.214840
vt 0.960686 0.229354
vt 0.988214 0.256737
vt 0.136580 0.508180
vt 0.148980 0.508679
vt 0.148476 0.531828
vt 0.725924 0.001629
vt 0.777385 0.001551
vt 0.740251 0.004555
vt 0.507322 0.272835
vt 0.503317 0.234490
vt 0.254564 0.041588
vt 0.278415 0.071313
vt 0.247371 0.102345
vt 0.572896 0.527255
vt 0.590761 0.503473
vt 0.591825 0.529089
vt 0.815563 0.309793
vt 0.029073 0.569788
vt 0.060620 0.573948
vt 0.029594 0.618773
vt 0.910147 0.382838
vt 0.851756 0.327130
vt 0.915901 0.323434
vt 0.662887 0.269530
vt 0.681255 0.300297
vt 0.272883 0.506555
vt 0.292202 0.507912
vt 0.276235 0.527024
vt 0.961951 0.328498
vt 0.990795 0.314343
vt 0.093379 0.135308
vt 0.854295 0.160015
vt 0.420728 0.654364
vt 0.433859 0.677904
vt 0.437365 0.697862
vt 0.999336 0.235082
vt 0.976600 0.190749
vt 0.289847 0.308055
vt 0.288765 0.339618
vt 0.273960 0.305873
vt 0.643003 0.209034
vt 0.672270 0.155035
vt 0.808972 0.352120
vt 0.788609 0.329794
vt 0.565256 0.612676
vt 0.588406 0.568372
vt 0.582651 0.614649
vt 0.255530 0.520467
vt 0.276563 0.573787
vt 0.794294 0.220423
vt 0.802798 0.177048
vt 0.618399 0.263141
vt 0.098645 0.638522
vt 0.125009 0.650938
vt 0.102745 0.649734
vt 0.451979 0.354471
vt 0.443721 0.391701
vt 0.434402 0.371036
vt 0.518495 0.654004
vt 0.515783 0.644539
vt 0.513461 0.590455
vt 0.584142 0.322799
vt 0.032151 0.253558
vt 0.049332 0.236574
vt 0.083686 0.256150
vt 0.063066 0.616688
vt 0.074221 0.575461
vt 0.083567 0.607917
vt 0.961676 0.381104
vt 0.433616 0.730207
vt 0.374628 0.705485
vt 0.578669 0.387271
vt 0.587037 0.436560
vt 0.213173 0.529978
vt 0.236299 0.523876
vt 0.226685 0.572394
vt 0.207568 0.374364
vt 0.247115 0.404528
vt 0.228893 0.462756
vt 0.075348 0.360156
vt 0.120428 0.336687
vt 0.080599 0.379625
vt 0.034873 0.179425
vt 0.014693 0.216103
vt 0.146668 0.615331
vt 0.121278 0.616911
vt 0.145022 0.577414
vt 0.296057 0.570871
vt 0.291936 0.614297
vt 0.467478 0.378925
vt 0.600530 0.100993
vt 0.644369 0.072644
vt 0.301636 0.365706
vt 0.307262 0.399462
vt 0.289045 0.381357
vt 0.226044 0.186104
vt 0.244519 0.161193
vt 0.243586 0.201872
vt 0.542798 0.379896
vt 0.541453 0.336379
vt 0.627065 0.463410
vt 0.248814 0.613241
vt 0.270461 0.637328
vt 0.238453 0.381501
vt 0.289002 0.025655
vt 0.322035 0.030838
vt 0.311764 0.050874
vt 0.213764 0.048230
vt 0.220049 0.100726
vt 0.198548 0.075663
vt 0.135127 0.054014
vt 0.164591 0.033592
vt 0.157116 0.067787
vt 0.233661 0.023984
vt 0.189450 0.030245
vt 0.648803 0.550240
vt 0.656840 0.536086
vt 0.681103 0.553571
vt 0.331287 0.452647
vt 0.334115 0.420188
vt 0.338071 0.348280
vt 0.359342 0.362515
vt 0.371652 0.404849
vt 0.387380 0.104418
vt 0.397802 0.053696
vt 0.417986 0.062413
vt 0.168302 0.285134
vt 0.133872 0.307089
vt 0.136669 0.296448
vt 0.341375 0.236493
vt 0.330299 0.210778
vt 0.361075 0.209427
vt 0.517520 0.722873
vt 0.514353 0.812380
vt 0.514836 0.757573
vt 0.559896 0.671365
vt 0.553715 0.709479
vt 0.362249 0.197094
vt 0.921864 0.419650
vt 0.444113 0.227322
vt 0.453550 0.260607
vt 0.383777 0.248441
vt 0.551758 0.727539
vt 0.557306 0.723070
vt 0.372201 0.097870
vt 0.295134 0.158627
vt 0.295166 0.172983
vt 0.274558 0.157725
vt 0.180314 0.168017
vt 0.158978 0.174519
vt 0.163934 0.145628
vt 0.309112 0.232943
vt 0.364394 0.314808
vt 0.394181 0.309007
vt 0.398373 0.324703
vt 0.264295 0.183536
vt 0.310861 0.180873
vt 0.335670 0.168910
vt 0.329094 0.188721
vt 0.135203 0.161250
vt 0.141495 0.146264
vt 0.212934 0.166345
vt 0.232723 0.148008
vt 0.094238 0.082624
vt 0.075881 0.075393
vt 0.366885 0.432737
vt 0.344554 0.399340
vt 0.215788 0.141307
vt 0.296217 0.284597
vt 0.325620 0.310927
vt 0.297404 0.291319
vt 0.312552 0.216748
vt 0.279003 0.213100
vt 0.294736 0.194549
vt 0.209937 0.114500
vt 0.297853 0.224869
vt 0.239745 0.134596
vt 0.493994 0.268145
vt 0.479960 0.302076
vt 0.478297 0.255240
vt 0.183333 0.146718
vt 0.659961 0.651088
vt 0.327785 0.160921
vt 0.100831 0.288812
vt 0.192920 0.186463
vt 0.190499 0.168195
vt 0.168309 0.117176
vt 0.357712 0.154958
vt 0.161981 0.203525
vt 0.164735 0.216546
vt 0.187796 0.306720
vt 0.137846 0.318675
vt 0.207765 0.229093
vt 0.408864 0.224980
vt 0.370820 0.237650
vt 0.368796 0.224045
vt 0.834339 0.194133
vt 0.358696 0.615367
vt 0.368783 0.623555
vt 0.356840 0.625497
vt 0.418357 0.749969
vt 0.354794 0.766539
vt 0.604053 0.667699
vt 0.599121 0.652100
vt 0.601074 0.651855
vt 0.683270 0.489012
vt 0.688792 0.461160
vt 0.739621 0.492418
vt 0.317649 0.479750
vt 0.346774 0.480777
vt 0.131768 0.258866
vt 0.132514 0.245526
vt 0.258519 0.006484
vt 0.096814 0.227804
vt 0.130482 0.219166
vt 0.135006 0.228785
vt 0.124645 0.447547
vt 0.154878 0.482255
vt 0.108263 0.457257
vt 0.117790 0.084648
vt 0.988488 0.188405
vt 0.153479 0.344772
vt 0.133948 0.356378
vt 0.148108 0.331164
vt 0.300342 0.335019
vt 0.314595 0.324789
vt 0.326875 0.350928
vt 0.695266 0.670326
vt 0.697368 0.657264
vt 0.151975 0.185534
vt 0.175734 0.191523
vt 0.311957 0.262257
vt 0.341052 0.268602
vt 0.302154 0.276914
vt 0.562953 0.672745
vt 0.561983 0.655701
vt 0.855151 0.442026
vt 0.273027 0.614112
vt 0.214849 0.452116
vt 0.257992 0.321974
vt 0.276006 0.352076
vt 0.120455 0.173422
vt 0.014043 0.270040
vt 0.001352 0.272522
vt 0.004332 0.210885
vt 0.333235 0.065780
vt 0.863726 0.285222
vt 0.105782 0.392384
vt 0.086608 0.429652
vt 0.067753 0.393371
vt 0.192051 0.012687
vt 0.152332 0.019164
vt 0.440918 0.516602
vt 0.443470 0.513280
vt 0.312138 0.546017
vt 0.309640 0.568587
vt 0.533640 0.735035
vt 0.530032 0.747871
vt 0.533312 0.690440
vt 0.815288 0.040470
vt 0.754027 0.050803
vt 0.776470 0.018280
vt 0.645947 0.533567
vt 0.135758 0.423212
vt 0.153097 0.438609
vt 0.105797 0.128332
vt 0.120002 0.114052
vt 0.677539 0.577270
vt 0.686933 0.569201
vt 0.131334 0.192593
vt 0.137254 0.209451
vt 0.189045 0.241356
vt 0.164662 0.234850
vt 0.320951 0.365570
vt 0.545364 0.744985
vt 0.538964 0.667170
vt 0.545469 0.718425
vt 0.325022 0.291803
vt 0.134516 0.081379
vt 0.074726 0.096233
vt 0.032918 0.123874
vt 0.400195 0.614398
vt 0.418394 0.593141
vt 0.418418 0.613307
vt 0.053732 0.211297
vt 0.354891 0.523943
vt 0.335365 0.522023
vt 0.349390 0.507363
vt 0.183477 0.264539
vt 0.197433 0.263334
vt 0.200439 0.244629
vt 0.695610 0.544898
vt 0.688848 0.537775
vt 0.691930 0.502917
vt 0.518224 0.334445
vt 0.505291 0.500617
vt 0.507728 0.530931
vt 0.503379 0.504200
vt 0.270800 0.044355
vt 0.540700 0.586596
vt 0.544608 0.545694
vt 0.543679 0.578397
vt 0.478907 0.153142
vt 0.473617 0.207477
vt 0.469893 0.182094
vt 0.254330 0.352231
vt 0.647546 0.663783
vt 0.651243 0.669569
vt 0.651034 0.685061
vt 0.597685 0.154255
vt 0.418551 0.554883
vt 0.419527 0.543559
vt 0.423680 0.576229
vt 0.319562 0.252266
vt 0.304263 0.251916
vt 0.158517 0.254002
vt 0.180908 0.493164
vt 0.452507 0.101914
vt 0.434039 0.078930
vt 0.452148 0.096191
vt 0.421114 0.179234
vt 0.412835 0.166651
vt 0.543825 0.793896
vt 0.539836 0.743966
vt 0.441442 0.324222
vt 0.651580 0.577736
vt 0.056567 0.165416
vt 0.065425 0.529210
vt 0.048727 0.528156
vt 0.058716 0.507379
vt 0.117558 0.353790
vt 0.123644 0.272840
vt 0.129726 0.283289
vt 0.097575 0.245124
vt 0.456519 0.152214
vt 0.075031 0.195114
vt 0.109903 0.205484
vt 0.967295 0.128879
vt 0.523082 0.529382
vt 0.520298 0.512690
vt 0.521808 0.501666
vt 0.184473 0.394857
vt 0.189172 0.363031
vt 0.374330 0.059520
vt 0.328601 0.145576
vt 0.211143 0.294758
vt 0.209798 0.303500
vt 0.377916 0.515752
vt 0.361962 0.504822
vt 0.397941 0.508403
vt 0.161870 0.470954
vt 0.464194 0.336829
vt 0.476251 0.578619
vt 0.479166 0.545356
vt 0.491943 0.557649
vt 0.470859 0.675024
vt 0.444441 0.664553
vt 0.457921 0.648014
vt 0.074863 0.271088
vt 0.651013 0.479713
vt 0.307193 0.150565
vt 0.210116 0.279658
vt 0.199807 0.282629
vt 0.447109 0.646075
vt 0.296372 0.007533
vt 0.439155 0.583241
vt 0.432217 0.606456
vt 0.429311 0.590495
vt 0.012703 0.167480
vt 0.784359 0.137652
vt 0.930688 0.076586
vt 0.459504 0.595484
vt 0.449388 0.576977
vt 0.850326 0.019589
vt 0.489491 0.649142
vt 0.030571 0.513712
vt 0.488370 0.339346
vt 0.494450 0.317079
vt 0.180978 0.419705
vt 0.171871 0.326321
vt 0.398546 0.527210
vt 0.542521 0.645124
vt 0.543463 0.681138
vt 0.346120 0.019587
vt 0.047641 0.298984
vt 0.202284 0.334207
vt 0.489418 0.224715
vt 0.499621 0.219249
vt 0.379223 0.523686
vt 0.356247 0.187684
vt 0.372684 0.163295
vt 0.951172 0.400391
vt 0.934598 0.420133
vt 0.427740 0.536478
vt 0.219675 0.290941
vt 0.447461 0.676920
vt 0.422050 0.421928
vt 0.203046 0.431728
vt 0.691563 0.608558
vt 0.692248 0.626390
vt 0.493146 0.635734
vt 0.490214 0.625418
vt 0.493311 0.620244
vt 0.251283 0.373704
vt 0.264418 0.395224
vt 0.119465 0.406032
vt 0.039443 0.349917
vt 0.064415 0.339263
vt 0.512799 0.705868
vt 0.424078 0.208980
vt 0.399223 0.199099
vt 0.449917 0.171282
vt 0.182673 0.356323
vt 0.492709 0.527789
vt 0.340102 0.532056
vt 0.572332 0.501609
vt 0.257637 0.439838
vt 0.664959 0.608958
vt 0.146182 0.371687
vt 0.229757 0.306568
vt 0.225293 0.294942
vt 0.446017 0.684529
vt 0.469621 0.691799
vt 0.482071 0.697245
vt 0.488612 0.675038
vt 0.488570 0.692463
vt 0.238990 0.311834
vt 0.450592 0.515712
vt 0.164263 0.505566
vt 0.164094 0.529661
vt 0.616816 0.546227
vt 0.611327 0.502554
vt 0.630008 0.525936
vt 0.272396 0.435249
vt 0.181196 0.452537
vt 0.331742 0.544210
vt 0.692859 0.578114
vt 0.423925 0.286882
vt 0.449464 0.301370
vt 0.166608 0.384638
vt 0.556514 0.407517
vt 0.510944 0.807847
vt 0.409553 0.379351
vt 0.483342 0.707422
vt 0.485755 0.704921
vt 0.455670 0.563343
vt 0.722780 0.036359
vt 0.681813 0.013779
vt 0.274145 0.378490
vt 0.492277 0.588680
vt 0.486525 0.587223
vt 0.154521 0.651244
vt 0.476031 0.522044
vt 0.474009 0.510933
vt 0.298064 0.136591
vt 0.327935 0.613759
vt 0.334894 0.603038
vt 0.671443 0.514841
vt 0.677527 0.531582
vt 0.123901 0.526464
vt 0.610969 0.572990
vt 0.489999 0.511945
vt 0.019240 0.342293
vt 0.025755 0.302235
vt 0.055395 0.328010
vt 0.322619 0.610613
vt 0.314361 0.585554
vt 0.324766 0.582854
vt 0.770166 0.162403
vt 0.766451 0.193144
vt 0.118975 0.506707
vt 0.329735 0.581246
vt 0.106157 0.530142
vt 0.106147 0.507783
vt 0.582068 0.665794
vt 0.574460 0.653826
vt 0.580431 0.657411
vt 0.164794 0.582712
vt 0.747477 0.228458
vt 0.290774 0.531563
vt 0.122925 0.572974
vt 0.567127 0.579557
vt 0.089459 0.647701
vt 0.102448 0.575080
vt 0.172772 0.615813
vt 0.251468 0.573300
vt 0.093380 0.609301
vt 0.177492 0.647580
vt 0.578056 0.647962
vt 0.305786 0.610952
vt 0.105649 0.047137
vt 0.239811 0.057403
vt 0.650056 0.516549
vt 0.695130 0.509145
vt 0.292742 0.637210
vt 0.266011 0.650683
vt 0.251823 0.543923
vt 0.297985 0.649441
vt 0.328251 0.749395
vt 0.102519 0.323697
vt 0.316462 0.672220
vt 0.331121 0.651730
vt 0.698776 0.553133
vt 0.703579 0.538474
vt 0.704908 0.555586
vt 0.309973 0.697016
vt 0.313386 0.727869
vt 0.358324 0.637557
vt 0.286380 0.140156
vt 0.487582 0.164336
vt 0.392943 0.766545
vt 0.696849 0.234193
vt 0.198496 0.606859
vt 0.444043 0.595706
vt 0.877206 0.086407
vt 0.892005 0.059747
vt 0.666979 0.223737
vt 0.250867 0.141124
vt 0.230720 0.507145
vt 0.380359 0.350881
vt 0.392435 0.399845
vt 0.313002 0.452488
vt 0.278299 0.407996
vt 0.631545 0.502603
vt 0.372156 0.283719
vt 0.506881 0.583783
vt 0.527199 0.845369
vt 0.521040 0.858414
vt 0.525600 0.822972
vt 0.501953 0.543701
vt 0.500000 0.543456
vt 0.501953 0.537598
vt 0.558259 0.543548
vt 0.554496 0.529971
vt 0.569946 0.215058
vt 0.193223 0.648952
vt 0.530715 0.789332
vt 0.525390 0.786397
vt 0.255611 0.205152
vt 0.058959 0.412139
vt 0.472779 0.622751
vt 0.363074 0.256108
vt 0.227803 0.003301
vt 0.012381 0.533381
vt 0.425003 0.098374
vt 0.388821 0.131892
vt 0.625807 0.033370
vt 0.588392 0.062939
vt 0.254904 0.301248
vt 0.010449 0.324049
vt 0.373380 0.295397
vt 0.264584 0.135691
vt 0.276588 0.134123
vt 0.345692 0.178695
vt 0.264558 0.106401
vt 0.402710 0.260482
vt 0.447026 0.553302
vt 0.543933 0.527163
vt 0.527357 0.699658
vt 0.693724 0.647411
vt 0.494598 0.654308
vt 0.377861 0.616723
vt 0.693106 0.594426
vt 0.689808 0.595650
vt 0.406392 0.351160
vt 0.450098 0.621905
vt 0.436670 0.123986
vt 0.344593 0.311267
vt 0.642687 0.022501
vt 0.633111 0.499181
vt 0.527764 0.671248
vt 0.532252 0.642100
vt 0.356068 0.053135
vt 0.353429 0.090391
vt 0.305457 0.636910
vt 0.333233 0.513947
vt 0.537109 0.641357
vt 0.538253 0.628353
vt 0.237182 0.502123
vt 0.503638 0.885494
vt 0.508326 0.871519
vt 0.505408 0.891851
vt 0.526607 0.539955
vt 0.213802 0.505300
vt 0.663905 0.677483
vt 0.585934 0.664962
vt 0.593659 0.659835
vt 0.587657 0.682147
vt 0.373273 0.274203
vt 0.500488 0.511982
vt 0.501465 0.503662
vt 0.501678 0.513721
vt 0.216345 0.504702
vt 0.406374 0.142736
vt 0.647304 0.637680
vt 0.393704 0.639346
vt 0.507513 0.855878
vt 0.403833 0.448716
vt 0.280246 0.295997
vt 0.378326 0.454544
vt 0.257000 0.506495
vt 0.442744 0.587178
vt 0.406534 0.422223
vt 0.608974 0.670229
vt 0.607834 0.655253
vt 0.613420 0.671699
vt 0.293404 0.274232
vt 0.647703 0.685912
vt 0.412662 0.624982
vt 0.419061 0.583122
vt 0.343769 0.604516
vt 0.011383 0.507054
vt 0.031779 0.505108
vt 0.372577 0.335250
vt 0.555767 0.517841
vt 0.554550 0.499312
vt 0.645198 0.605634
vt 0.649935 0.606003
vt 0.532074 0.613122
vt 0.533942 0.631453
vt 0.528475 0.584493
vt 0.545199 0.507605
vt 0.549316 0.499512
vt 0.548828 0.504150
vt 0.446733 0.569417
vt 0.385220 0.634502
vt 0.356393 0.632256
vt 0.289245 0.280147
vt 0.672363 0.488770
vt 0.704652 0.509851
vt 0.700019 0.505486
vt 0.699474 0.499256
vt 0.442519 0.545955
vt 0.009214 0.571914
vt 0.004868 0.548428
vt 0.082311 0.648851
vt 0.209153 0.573472
vt 0.111929 0.503174
vt 0.701141 0.514260
vt 0.195292 0.645028
vt 0.633362 0.581965
vt 0.641652 0.616812
vt 0.003137 0.616209
vt 0.061629 0.651936
vt 0.034332 0.652999
vt 0.002780 0.652320
vt 0.499181 0.534423
vt 0.499168 0.528540
vt 0.501953 0.534169
vt 0.201273 0.235294
vt 0.575085 0.689875
vt 0.571681 0.665404
s 1
usemtl Material_0.001
f 12/1/1 1/2/2 2/3/3
f 239/4/4 337/5/5 262/6/6
f 263/7/7 138/8/8 70/9/9
f 47/10/10 21/11/11 22/12/12
f 22/12/12 44/13/13 51/14/14
f 22/12/12 21/11/11 318/15/15
f 38/16/16 513/17/17 371/18/18
f 39/19/19 294/20/20 412/21/21
f 46/22/22 42/23/23 15/24/24
f 224/25/25 214/26/26 242/27/27
f 46/22/22 21/11/11 47/10/10
f 50/28/28 16/29/29 231/30/30
f 318/15/15 21/11/11 60/31/31
f 46/22/22 15/24/24 66/32/32
f 210/33/33 58/34/34 49/35/35
f 258/36/36 457/37/37 67/38/38
f 242/27/27 28/39/39 187/40/40
f 286/41/41 313/42/42 357/43/43
f 129/44/44 15/24/24 42/23/23
f 18/45/45 94/46/46 423/47/47
f 101/48/48 64/49/49 150/50/50
f 66/32/32 15/24/24 80/51/51
f 328/52/52 303/53/53 289/54/54
f 47/10/10 113/55/55 46/22/22
f 109/56/56 123/57/57 375/58/58
f 51/14/14 44/13/13 85/59/59
f 116/60/60 19/61/61 426/62/62
f 185/63/63 219/64/64 211/65/65
f 173/66/66 120/67/67 200/68/68
f 437/69/69 213/70/70 177/71/71
f 364/72/72 298/73/73 252/74/74
f 175/75/75 421/76/76 134/77/77
f 129/44/44 80/51/51 15/24/24
f 290/78/78 176/79/79 32/80/80
f 113/55/55 42/23/23 46/22/22
f 86/81/81 172/82/82 173/66/66
f 221/83/83 172/82/82 29/84/84
f 16/29/29 455/85/85 231/30/30
f 86/81/81 149/86/86 150/87/50
f 96/88/87 403/89/88 505/90/89
f 8/91/90 502/92/91 398/93/92
f 156/94/93 157/95/94 455/85/85
f 181/96/95 74/97/96 322/98/97
f 500/99/98 107/100/99 89/101/100
f 29/84/84 190/102/101 85/59/59
f 491/103/102 125/104/103 152/105/104
f 115/106/105 273/107/106 45/108/107
f 63/109/108 60/31/31 98/110/109
f 415/111/110 494/112/111 26/113/112
f 48/114/113 150/87/50 64/115/49
f 134/77/77 463/116/114 175/75/75
f 173/66/66 55/117/115 120/67/67
f 195/118/116 145/119/117 112/120/118
f 101/121/48 150/87/50 333/122/119
f 205/123/120 206/124/121 508/125/122
f 129/44/44 42/23/23 213/70/70
f 242/27/27 251/126/123 225/127/124
f 42/23/23 113/55/55 127/128/125
f 127/128/125 113/55/55 166/129/126
f 202/130/127 408/131/128 56/132/129
f 140/133/130 26/113/112 237/134/131
f 303/53/53 455/85/85 289/54/54
f 221/83/83 24/135/132 330/136/133
f 228/137/134 63/109/108 66/32/32
f 122/138/135 57/139/136 507/140/137
f 407/141/138 244/142/139 102/143/140
f 333/122/119 173/66/66 200/68/68
f 142/144/141 157/145/94 294/146/20
f 66/32/32 76/147/142 228/137/134
f 106/148/143 250/149/144 293/150/145
f 125/104/103 88/151/146 152/105/104
f 141/152/147 52/153/148 88/151/146
f 48/114/113 64/115/49 232/154/149
f 112/120/118 58/155/34 146/156/150
f 247/157/151 76/147/142 80/51/51
f 299/158/152 247/157/151 129/44/44
f 43/159/153 218/160/154 117/161/155
f 94/46/46 18/45/45 485/162/156
f 147/163/157 258/36/36 255/164/158
f 279/165/159 414/166/160 111/167/161
f 272/168/162 402/169/163 421/76/76
f 127/128/125 190/102/101 273/107/106
f 83/170/164 154/171/165 78/172/166
f 237/134/131 191/173/167 165/174/168
f 115/106/105 48/114/113 232/154/149
f 407/141/138 501/175/169 244/142/139
f 225/127/124 163/176/170 91/177/171
f 144/178/172 394/179/173 118/180/174
f 177/71/71 42/23/23 127/128/125
f 228/137/134 76/147/142 231/30/30
f 362/181/175 72/182/176 186/183/177
f 247/157/151 153/184/178 245/185/179
f 299/158/152 129/44/44 458/186/180
f 84/187/181 425/188/182 210/33/33
f 76/147/142 247/157/151 245/185/179
f 423/47/47 454/189/183 18/45/45
f 417/190/184 312/191/185 510/192/186
f 194/193/187 69/194/188 126/195/189
f 241/196/190 240/197/191 143/198/192
f 305/199/193 194/193/187 284/200/194
f 1/201/2 281/202/195 286/203/41
f 207/204/196 394/179/173 189/205/197
f 452/206/198 462/207/199 495/208/200
f 311/209/201 431/210/202 321/211/203
f 217/212/204 314/213/205 324/214/206
f 493/215/207 325/216/208 68/217/209
f 487/218/210 501/219/169 328/220/52
f 253/221/211 232/222/149 64/49/49
f 325/216/208 34/223/212 68/217/209
f 115/106/105 232/154/149 230/224/213
f 131/225/214 97/226/215 483/227/216
f 230/228/213 232/222/149 429/229/217
f 428/230/218 431/210/202 311/209/201
f 363/231/219 358/232/220 360/233/221
f 395/234/222 361/235/223 100/236/224
f 433/237/225 325/216/208 493/215/207
f 319/238/226 99/239/227 422/240/228
f 339/241/229 358/232/220 341/242/230
f 341/242/230 345/243/231 343/244/232
f 448/245/233 282/246/234 361/235/223
f 360/233/221 339/241/229 72/182/176
f 72/182/176 362/181/175 370/247/235
f 6/248/236 72/182/176 370/247/235
f 130/249/237 429/250/217 241/196/190
f 495/208/200 308/251/238 62/252/239
f 370/247/235 375/58/58 14/253/240
f 342/254/241 399/255/242 35/256/243
f 379/257/244 380/258/245 3/259/246
f 487/218/210 157/145/94 142/144/141
f 14/253/240 390/260/247 69/194/188
f 390/260/247 14/253/240 375/58/58
f 388/261/248 380/258/245 379/257/244
f 194/193/187 392/262/249 69/194/188
f 419/263/250 162/264/251 353/265/252
f 198/266/253 109/56/56 375/58/58
f 268/267/254 513/17/17 38/16/16
f 358/232/220 475/268/255 341/242/230
f 395/234/222 100/236/224 198/266/253
f 339/241/229 186/183/177 72/182/176
f 324/214/206 314/213/205 335/269/256
f 390/260/247 123/57/57 126/195/189
f 437/69/69 177/71/71 298/73/73
f 348/270/257 395/234/222 346/271/258
f 30/272/259 143/198/192 109/56/56
f 198/266/253 100/236/224 30/272/259
f 282/246/234 100/236/224 361/235/223
f 475/268/255 397/273/260 345/243/231
f 344/274/261 12/1/1 450/275/262
f 260/276/263 447/277/264 217/212/204
f 2/3/3 1/2/2 439/278/265
f 334/279/266 310/280/267 484/281/268
f 172/82/82 221/83/83 79/282/269
f 170/283/270 203/284/271 216/285/272
f 146/156/150 210/286/33 119/287/273
f 299/158/152 153/184/178 247/157/151
f 427/288/274 87/289/275 434/290/276
f 274/291/277 458/186/180 229/292/278
f 274/291/277 229/292/278 226/293/279
f 294/20/20 223/294/280 142/295/141
f 386/296/281 293/150/145 445/297/282
f 305/199/193 411/298/283 181/96/95
f 359/299/284 413/300/285 446/301/286
f 338/302/287 259/303/288 467/304/289
f 296/305/290 130/249/237 241/196/190
f 101/121/48 333/122/119 504/306/291
f 499/307/292 180/308/293 468/309/294
f 418/310/295 400/311/296 366/312/297
f 387/313/298 513/17/17 433/314/225
f 349/315/299 365/316/300 344/274/261
f 347/317/301 383/318/302 368/319/303
f 313/42/42 286/320/41 288/321/304
f 98/110/109 21/11/11 46/22/22
f 289/54/54 455/85/85 157/95/94
f 437/69/69 226/293/279 213/70/70
f 127/128/125 182/322/305 177/71/71
f 425/188/182 84/187/181 201/323/306
f 255/164/158 67/38/38 295/324/307
f 155/325/308 206/124/121 472/326/309
f 100/236/224 296/305/290 30/272/259
f 478/327/310 361/235/223 349/315/299
f 110/328/311 9/329/312 364/330/72
f 110/328/311 364/330/72 402/169/163
f 176/79/79 290/78/78 405/331/313
f 172/82/82 75/332/314 29/84/84
f 222/333/315 444/334/316 41/335/317
f 101/336/48 240/197/191 64/337/49
f 19/61/61 151/338/318 471/339/319
f 317/340/320 337/5/5 382/341/321
f 328/52/52 163/176/170 303/53/53
f 431/342/202 267/343/322 321/344/203
f 127/128/125 166/129/126 190/102/101
f 233/345/323 199/346/324 61/347/325
f 1/201/2 186/348/177 281/202/195
f 327/349/326 496/350/327 338/302/287
f 445/297/282 359/299/284 446/301/286
f 437/69/69 298/73/73 364/72/72
f 282/246/234 306/351/328 128/352/329
f 453/353/330 286/203/41 357/354/43
f 340/355/331 478/327/310 349/315/299
f 401/356/332 340/355/331 344/274/261
f 450/275/262 401/356/332 344/274/261
f 381/357/333 320/358/334 2/3/3
f 144/178/172 418/310/295 420/359/335
f 50/28/28 156/94/93 16/29/29
f 69/194/188 392/262/249 6/248/236
f 437/360/69 384/361/336 226/362/279
f 399/255/242 342/254/241 438/363/337
f 205/123/120 35/256/243 400/311/296
f 241/196/190 30/272/259 220/364/338
f 430/365/339 421/76/76 249/366/340
f 506/367/341 404/368/342 184/369/343
f 134/77/77 421/76/76 430/365/339
f 310/280/267 493/215/207 484/281/268
f 430/365/339 130/249/237 306/351/328
f 413/300/285 359/299/284 351/370/344
f 452/206/198 366/312/297 400/311/296
f 413/300/285 401/356/332 450/275/262
f 280/371/345 459/372/346 73/373/347
f 36/374/348 381/357/333 377/375/349
f 377/375/349 381/357/333 439/376/265
f 183/377/350 313/378/42 427/379/274
f 133/380/351 156/94/93 50/28/28
f 125/104/103 141/152/147 88/151/146
f 205/123/120 418/310/295 206/124/121
f 259/381/288 133/382/351 153/383/178
f 411/298/283 417/190/184 287/384/352
f 411/298/283 287/384/352 181/96/95
f 329/385/353 299/386/152 458/387/180
f 415/111/110 26/113/112 140/133/130
f 206/124/121 144/178/172 118/180/174
f 81/388/354 309/389/355 477/390/356
f 105/391/357 155/325/308 472/326/309
f 128/352/329 306/351/328 130/249/237
f 37/392/358 466/393/359 263/394/7
f 465/395/360 303/53/53 163/176/170
f 192/396/361 292/397/362 492/398/363
f 433/237/225 480/399/364 387/400/298
f 205/123/120 400/311/296 418/310/295
f 435/401/365 445/297/282 320/358/334
f 457/37/37 133/402/351 259/303/288
f 31/403/366 321/404/203 301/405/367
f 235/406/368 34/223/212 482/407/369
f 437/360/69 364/408/72 9/409/312
f 99/239/227 254/410/370 407/141/138
f 99/239/227 407/141/138 422/240/228
f 439/411/265 286/203/41 453/353/330
f 161/412/371 421/76/76 175/75/75
f 463/116/114 430/365/339 306/351/328
f 43/413/153 470/414/372 404/415/342
f 175/75/75 478/327/310 161/412/371
f 468/309/294 208/416/373 414/166/160
f 386/296/281 445/297/282 435/401/365
f 480/399/364 383/318/302 347/317/301
f 412/21/21 294/20/20 258/36/36
f 217/212/204 469/417/374 36/374/348
f 479/418/375 469/417/374 217/212/204
f 445/297/282 293/150/145 486/419/376
f 213/70/70 226/293/279 229/292/278
f 235/406/368 482/407/369 257/420/377
f 340/355/331 71/421/378 161/412/371
f 71/421/378 340/355/331 350/422/379
f 333/122/119 124/423/380 504/306/291
f 386/296/281 435/401/365 469/417/374
f 398/424/92 135/425/381 419/426/250
f 367/427/382 503/428/383 485/162/156
f 350/422/379 413/300/285 351/370/344
f 161/412/371 71/421/378 272/168/162
f 351/370/344 272/168/162 71/421/378
f 69/194/188 6/248/236 14/253/240
f 469/417/374 479/418/375 335/269/256
f 297/429/384 431/210/202 428/230/218
f 475/268/255 358/232/220 332/430/385
f 260/276/263 355/431/386 354/432/387
f 126/195/189 284/200/194 194/193/187
f 160/433/388 357/434/43 183/435/350
f 259/303/288 449/436/389 457/37/37
f 162/264/251 501/175/169 316/437/390
f 265/438/391 5/439/392 276/440/393
f 340/355/331 161/412/371 478/327/310
f 250/149/144 486/419/376 293/150/145
f 486/419/376 250/149/144 359/299/284
f 243/441/394 369/442/395 10/443/396
f 335/269/256 326/444/397 469/417/374
f 479/418/375 324/214/206 335/269/256
f 329/445/353 458/186/180 274/291/277
f 3/259/246 339/241/229 341/242/230
f 332/430/385 358/232/220 4/446/398
f 369/447/395 11/448/399 377/375/349
f 369/442/395 377/449/349 10/443/396
f 469/417/374 435/401/365 36/374/348
f 312/191/185 417/190/184 511/450/400
f 434/451/276 37/452/358 197/453/401
f 364/330/72 252/454/74 421/76/76
f 320/358/334 450/275/262 2/3/3
f 68/217/209 34/223/212 235/406/368
f 55/117/115 330/136/133 488/455/402
f 267/456/322 124/423/380 200/68/68
f 449/436/389 259/303/288 338/302/287
f 265/438/391 371/457/18 498/458/403
f 301/459/367 61/347/325 502/92/91
f 6/248/236 370/247/235 14/253/240
f 260/276/263 11/448/399 355/431/386
f 198/266/253 346/271/258 395/234/222
f 243/441/394 10/443/396 132/460/404
f 294/20/20 457/37/37 258/36/36
f 169/461/405 404/415/342 470/414/372
f 177/71/71 213/70/70 42/23/23
f 284/200/194 240/197/191 101/336/48
f 291/462/406 501/175/169 443/463/407
f 367/427/382 485/162/156 159/464/408
f 106/148/143 293/150/145 326/444/397
f 468/309/294 447/277/264 304/465/409
f 260/276/263 304/465/409 447/277/264
f 363/231/219 4/446/398 358/232/220
f 369/447/395 355/431/386 11/448/399
f 345/243/231 341/242/230 475/268/255
f 292/397/362 261/466/410 160/433/388
f 384/361/336 274/467/277 226/468/279
f 297/429/384 509/469/411 431/210/202
f 465/395/360 225/127/124 251/126/123
f 335/269/256 193/470/412 326/444/397
f 447/277/264 414/166/160 314/213/205
f 176/79/79 332/430/385 4/446/398
f 419/263/250 501/175/169 162/264/251
f 356/471/413 260/276/263 354/432/387
f 331/472/414 8/473/90 419/263/250
f 280/371/345 73/373/347 160/433/388
f 107/474/99 160/433/388 261/466/410
f 393/475/415 269/476/416 34/223/212
f 131/225/214 334/279/266 309/389/355
f 429/477/217 249/478/340 230/224/213
f 270/479/417 197/453/401 292/397/362
f 468/309/294 414/166/160 447/277/264
f 376/480/418 355/431/386 369/447/395
f 243/441/394 376/481/418 369/442/395
f 244/142/139 501/175/169 264/482/419
f 159/464/408 485/162/156 23/483/420
f 513/17/17 476/484/421 380/485/245
f 497/486/422 409/487/423 73/488/347
f 36/374/348 320/358/334 381/357/333
f 23/483/420 295/324/307 67/38/38
f 147/163/157 440/489/424 442/490/425
f 302/491/426 327/349/326 338/302/287
f 302/491/426 338/302/287 444/334/316
f 279/165/159 275/492/427 389/493/428
f 325/216/208 433/237/225 379/257/244
f 328/220/52 289/494/54 487/218/210
f 373/495/429 352/496/430 256/497/431
f 373/495/429 334/279/266 484/281/268
f 304/465/409 356/471/413 7/498/432
f 94/46/46 356/471/413 354/432/387
f 143/198/192 240/197/191 126/195/189
f 402/169/163 364/330/72 421/76/76
f 179/499/433 276/440/393 5/439/392
f 403/500/88 459/372/346 280/371/345
f 107/100/99 500/99/98 280/501/345
f 474/502/434 258/36/36 147/163/157
f 496/350/327 159/464/408 449/436/389
f 268/267/254 87/503/275 513/17/17
f 279/165/159 389/493/428 414/166/160
f 410/504/435 180/308/293 499/307/292
f 410/504/435 304/465/409 7/498/432
f 94/46/46 503/428/383 356/471/413
f 356/471/413 503/428/383 7/498/432
f 471/505/319 94/46/46 354/432/387
f 471/505/319 354/432/387 355/431/386
f 40/506/436 355/431/386 376/480/418
f 40/507/436 376/481/418 243/441/394
f 40/507/436 243/441/394 278/508/437
f 278/509/437 317/510/320 382/511/321
f 151/512/318 155/325/308 105/391/357
f 151/512/318 105/391/357 423/47/47
f 426/62/62 19/61/61 40/513/436
f 403/89/88 280/514/345 500/515/98
f 173/66/66 333/122/119 149/86/86
f 178/516/438 261/517/410 27/518/439
f 474/502/434 168/519/440 412/21/21
f 208/416/373 180/308/293 222/333/315
f 136/520/441 457/37/37 449/436/389
f 94/46/46 485/162/156 503/428/383
f 471/505/319 355/431/386 40/506/436
f 404/368/342 492/398/363 197/453/401
f 403/500/88 96/521/87 337/5/5
f 403/89/88 500/515/98 505/90/89
f 357/522/43 313/378/42 183/377/350
f 417/190/184 74/97/96 287/384/352
f 246/523/442 97/226/215 227/524/443
f 23/483/420 136/520/441 159/464/408
f 367/427/382 159/464/408 496/350/327
f 496/350/327 327/349/326 460/525/444
f 410/504/435 222/333/315 180/308/293
f 153/184/178 299/158/152 467/526/289
f 471/505/319 423/47/47 94/46/46
f 463/116/114 306/351/328 448/245/233
f 277/527/445 328/220/52 501/219/169
f 244/142/139 464/528/446 102/143/140
f 424/529/447 382/511/321 248/530/448
f 265/438/391 498/458/403 391/531/449
f 92/532/450 91/177/171 135/533/381
f 118/180/174 13/534/451 472/326/309
f 337/5/5 96/521/87 262/6/6
f 276/440/393 138/535/8 167/536/452
f 178/516/438 408/131/128 89/101/100
f 168/519/440 474/502/434 442/490/425
f 204/537/453 154/171/165 83/170/164
f 454/189/183 147/163/157 255/164/158
f 410/504/435 460/525/444 327/349/326
f 367/427/382 460/525/444 503/428/383
f 105/391/357 454/189/183 423/47/47
f 151/512/318 423/47/47 471/505/319
f 430/365/339 429/250/217 130/249/237
f 238/538/454 426/62/62 278/539/437
f 402/169/163 272/168/162 351/370/344
f 176/79/79 4/446/398 385/540/455
f 179/541/433 17/542/456 216/285/272
f 153/184/178 133/380/351 245/185/179
f 87/543/275 288/544/304 281/202/195
f 236/545/457 96/88/87 505/90/89
f 174/546/458 408/131/128 178/516/438
f 179/499/433 238/538/454 424/547/447
f 500/99/98 89/101/100 408/131/128
f 454/189/183 105/391/357 440/489/424
f 23/483/420 485/162/156 18/45/45
f 275/492/427 41/335/317 436/548/459
f 295/324/307 18/45/45 454/189/183
f 45/108/107 86/81/81 48/114/113
f 116/60/60 426/62/62 5/439/392
f 147/163/157 442/490/425 474/502/434
f 295/324/307 23/483/420 18/45/45
f 440/489/424 147/163/157 454/189/183
f 490/549/460 90/550/461 275/492/427
f 424/551/447 248/552/448 179/541/433
f 17/542/456 179/541/433 248/552/448
f 17/542/456 248/552/448 196/553/462
f 20/554/463 330/136/133 456/555/464
f 236/545/457 262/556/6 96/88/87
f 193/470/412 490/549/460 110/328/311
f 490/549/460 275/492/427 436/548/459
f 494/557/111 196/553/462 239/4/4
f 160/433/388 183/435/350 270/479/417
f 150/87/50 149/86/86 333/122/119
f 198/266/253 30/272/259 109/56/56
f 148/558/465 494/559/111 262/556/6
f 148/558/465 262/556/6 236/545/457
f 409/560/423 453/561/330 357/562/43
f 171/563/466 78/172/166 500/515/98
f 155/325/308 508/125/122 206/124/121
f 199/346/324 92/532/450 61/347/325
f 190/102/101 51/14/14 85/59/59
f 44/13/13 53/564/467 24/135/132
f 26/113/112 494/112/111 148/565/465
f 154/171/165 33/566/468 78/172/166
f 83/170/164 78/172/166 171/563/466
f 202/130/127 171/567/466 408/131/128
f 78/172/166 505/90/89 500/515/98
f 255/164/158 258/36/36 67/38/38
f 507/140/137 119/568/273 122/138/135
f 33/566/468 191/569/167 148/558/465
f 33/566/468 148/558/465 236/545/457
f 219/64/64 408/131/128 174/546/458
f 202/570/127 83/170/164 171/563/466
f 320/358/334 36/374/348 435/401/365
f 114/571/469 140/133/130 237/134/131
f 237/134/131 26/113/112 191/173/167
f 56/132/129 408/131/128 219/64/64
f 63/109/108 98/110/109 66/32/32
f 25/572/470 191/569/167 154/171/165
f 204/537/453 83/170/164 202/570/127
f 77/573/471 204/537/453 202/570/127
f 82/574/472 56/132/129 185/63/63
f 165/174/168 191/173/167 25/575/470
f 240/197/191 253/576/211 64/337/49
f 194/193/187 305/199/193 336/577/473
f 50/28/28 231/30/30 76/147/142
f 237/134/131 165/174/168 201/323/306
f 49/35/35 117/161/155 114/571/469
f 20/554/463 187/40/40 488/455/402
f 281/202/195 476/578/421 87/543/275
f 201/323/306 165/174/168 425/188/182
f 494/557/111 17/542/456 196/553/462
f 326/444/397 110/328/311 106/148/143
f 270/579/417 183/377/350 427/379/274
f 229/292/278 129/44/44 213/70/70
f 188/580/474 425/188/182 165/174/168
f 59/581/475 425/188/182 188/580/474
f 82/574/472 202/130/127 56/132/129
f 218/160/154 140/133/130 461/582/476
f 119/583/273 59/581/475 188/580/474
f 119/287/273 507/584/137 146/156/150
f 90/550/461 315/585/477 389/493/428
f 185/63/63 56/132/129 219/64/64
f 146/156/150 77/586/471 82/587/472
f 238/588/454 278/589/437 424/590/447
f 4/446/398 363/231/219 385/540/455
f 204/591/453 146/156/150 57/592/136
f 497/486/422 132/460/404 409/487/423
f 185/593/63 146/156/150 82/587/472
f 496/350/327 449/436/389 338/302/287
f 76/147/142 66/32/32 80/51/51
f 32/80/80 385/540/455 378/594/478
f 75/332/314 273/107/106 190/102/101
f 258/36/36 474/502/434 412/21/21
f 81/388/354 502/595/91 8/473/90
f 186/183/177 339/241/229 3/259/246
f 53/564/467 214/26/26 224/25/25
f 210/286/33 59/596/475 119/287/273
f 45/108/107 75/332/314 86/81/81
f 242/27/27 214/26/26 54/597/479
f 52/598/148 117/161/155 49/35/35
f 115/106/105 45/108/107 48/114/113
f 324/214/206 479/418/375 217/212/204
f 498/458/403 371/457/18 387/599/298
f 200/68/68 212/600/480 266/601/481
f 95/602/482 242/27/27 54/597/479
f 154/171/165 191/569/167 33/566/468
f 187/40/40 224/25/25 242/27/27
f 90/550/461 389/493/428 275/492/427
f 456/555/464 53/564/467 224/25/25
f 24/135/132 53/564/467 456/555/464
f 242/27/27 225/127/124 28/39/39
f 24/135/132 456/555/464 330/136/133
f 389/493/428 315/585/477 414/166/160
f 131/225/214 331/472/414 353/265/252
f 251/126/123 242/27/27 95/602/482
f 175/75/75 448/245/233 478/327/310
f 322/98/97 271/603/483 392/262/249
f 122/138/135 154/171/165 57/139/136
f 221/83/83 29/84/84 24/135/132
f 288/544/304 87/543/275 427/379/274
f 193/470/412 110/328/311 326/444/397
f 71/421/378 350/422/379 351/370/344
f 240/197/191 429/250/217 253/576/211
f 366/312/297 62/252/239 420/359/335
f 50/28/28 76/147/142 245/185/179
f 122/138/135 25/572/470 154/171/165
f 84/187/181 114/571/469 201/323/306
f 456/555/464 224/25/25 187/40/40
f 218/160/154 43/159/153 285/604/484
f 390/260/247 126/195/189 69/194/188
f 146/156/150 204/591/453 77/586/471
f 456/555/464 187/40/40 20/554/463
f 279/165/159 41/335/317 275/492/427
f 266/601/481 233/345/323 301/459/367
f 104/605/485 464/528/446 374/606/486
f 74/97/96 181/96/95 287/384/352
f 410/504/435 302/491/426 222/333/315
f 158/607/487 481/608/488 118/180/174
f 225/127/124 92/532/450 28/39/39
f 237/134/131 201/323/306 114/571/469
f 27/518/439 261/517/410 192/609/361
f 55/117/115 172/82/82 79/282/269
f 246/523/442 227/524/443 406/610/489
f 294/146/20 156/611/93 133/382/351
f 236/545/457 505/90/89 33/566/468
f 5/439/392 426/62/62 238/538/454
f 322/98/97 336/577/473 181/96/95
f 403/500/88 337/5/5 459/372/346
f 330/136/133 79/282/269 221/83/83
f 394/179/173 144/178/172 189/205/197
f 75/332/314 45/108/107 273/107/106
f 333/122/119 200/68/68 124/423/380
f 511/612/400 504/613/291 124/614/380
f 65/615/490 504/616/291 411/617/283
f 65/618/490 101/48/48 504/619/291
f 187/40/40 28/39/39 488/455/402
f 228/137/134 251/126/123 95/602/482
f 178/516/438 89/101/100 107/100/99
f 178/516/438 107/100/99 261/517/410
f 95/602/482 63/109/108 228/137/134
f 313/378/42 288/544/304 427/379/274
f 330/136/133 20/554/463 488/455/402
f 126/195/189 123/57/57 143/198/192
f 51/14/14 166/129/126 113/55/55
f 225/127/124 91/177/171 92/532/450
f 214/26/26 53/564/467 318/15/15
f 411/298/283 511/450/400 417/190/184
f 121/620/491 251/126/123 228/137/134
f 123/57/57 390/260/247 375/58/58
f 78/172/166 33/566/468 505/90/89
f 77/573/471 202/570/127 82/621/472
f 180/308/293 208/416/373 468/309/294
f 239/4/4 248/552/448 382/341/321
f 79/282/269 330/136/133 55/117/115
f 212/600/480 120/67/67 55/117/115
f 29/84/84 85/59/59 24/135/132
f 267/343/322 509/622/411 124/623/380
f 186/183/177 380/258/245 476/624/421
f 455/85/85 303/53/53 121/620/491
f 146/156/150 507/584/137 57/592/136
f 212/600/480 488/455/402 233/345/323
f 222/333/315 302/491/426 444/334/316
f 444/334/316 467/304/289 329/625/353
f 373/495/429 309/389/355 334/279/266
f 200/68/68 266/601/481 267/456/322
f 326/444/397 293/150/145 386/296/281
f 132/460/404 10/443/396 453/626/330
f 493/215/207 451/627/492 480/399/364
f 65/628/490 411/298/283 305/199/193
f 491/103/102 27/629/439 169/461/405
f 121/620/491 228/137/134 231/30/30
f 382/511/321 424/529/447 278/509/437
f 222/333/315 41/335/317 111/167/161
f 311/209/201 234/630/493 139/631/494
f 291/632/406 91/177/171 277/633/445
f 81/388/354 8/473/90 331/472/414
f 19/634/61 508/125/122 155/325/308
f 47/10/10 22/12/12 51/14/14
f 92/532/450 199/346/324 488/455/402
f 446/301/286 413/300/285 450/275/262
f 436/548/459 384/635/336 9/329/312
f 483/227/216 334/279/266 131/225/214
f 90/550/461 193/470/412 335/269/256
f 406/610/489 99/239/227 283/636/495
f 463/116/114 134/77/77 430/365/339
f 312/191/185 511/450/400 509/469/411
f 288/544/304 286/203/41 281/202/195
f 348/270/257 12/1/1 365/316/300
f 348/270/257 362/181/175 12/1/1
f 365/316/300 361/235/223 348/270/257
f 395/234/222 348/270/257 361/235/223
f 510/192/186 32/80/80 74/97/96
f 171/567/466 500/99/98 408/131/128
f 336/577/473 305/199/193 181/96/95
f 348/270/257 370/247/235 362/181/175
f 271/603/483 72/182/176 6/248/236
f 271/603/483 6/248/236 392/262/249
f 370/247/235 348/270/257 346/271/258
f 271/603/483 489/637/496 360/233/221
f 271/603/483 360/233/221 72/182/176
f 40/513/436 19/61/61 471/339/319
f 432/638/497 360/233/221 489/637/496
f 393/475/415 343/244/232 512/639/498
f 360/233/221 378/594/478 363/231/219
f 271/603/483 323/640/499 489/637/496
f 368/319/303 383/318/302 438/363/337
f 473/641/500 451/627/492 483/227/216
f 432/638/497 323/640/499 74/97/96
f 65/628/490 284/200/194 101/336/48
f 432/638/497 74/97/96 378/594/478
f 51/14/14 190/102/101 166/129/126
f 378/594/478 74/97/96 32/80/80
f 176/79/79 385/540/455 32/80/80
f 322/98/97 392/262/249 336/577/473
f 116/60/60 372/642/501 19/61/61
f 12/1/1 344/274/261 365/316/300
f 3/259/246 341/242/230 343/244/232
f 476/484/421 513/17/17 87/503/275
f 455/85/85 121/620/491 231/30/30
f 444/334/316 329/625/353 41/335/317
f 436/548/459 41/335/317 329/625/353
f 420/359/335 62/252/239 189/205/197
f 335/269/256 314/213/205 315/585/477
f 410/504/435 327/349/326 302/491/426
f 1/2/2 12/1/1 362/181/175
f 1/2/2 362/181/175 186/183/177
f 269/476/416 512/639/498 397/273/260
f 467/643/289 299/386/152 329/385/353
f 267/343/322 266/644/481 321/344/203
f 314/213/205 217/212/204 447/277/264
f 113/55/55 47/10/10 51/14/14
f 312/191/185 290/78/78 510/192/186
f 210/33/33 425/188/182 59/581/475
f 290/78/78 32/80/80 510/192/186
f 60/31/31 21/11/11 98/110/109
f 361/235/223 365/316/300 349/315/299
f 343/244/232 345/243/231 512/639/498
f 513/17/17 380/485/245 388/645/248
f 325/216/208 379/257/244 343/244/232
f 207/204/196 223/294/280 158/607/487
f 318/15/15 54/597/479 214/26/26
f 135/533/381 91/177/171 291/632/406
f 337/646/5 132/460/404 497/486/422
f 282/246/234 128/352/329 100/236/224
f 280/371/345 160/433/388 107/474/99
f 203/284/271 285/647/484 506/367/341
f 73/648/347 409/649/423 357/522/43
f 209/650/502 102/143/140 464/528/446
f 23/483/420 457/37/37 136/520/441
f 413/300/285 350/422/379 401/356/332
f 478/327/310 448/245/233 361/235/223
f 10/443/396 377/449/349 439/651/265
f 433/237/225 388/261/248 379/257/244
f 352/496/430 68/217/209 235/406/368
f 490/549/460 193/470/412 90/550/461
f 315/585/477 314/213/205 414/166/160
f 309/389/355 373/495/429 477/390/356
f 172/82/82 55/117/115 173/66/66
f 252/74/74 298/73/73 182/322/305
f 48/114/113 86/81/81 150/87/50
f 308/251/238 189/205/197 62/252/239
f 158/607/487 118/180/174 394/179/173
f 482/407/369 103/652/503 257/420/377
f 475/268/255 332/430/385 428/230/218
f 475/268/255 428/230/218 311/209/201
f 127/128/125 273/107/106 115/106/105
f 438/363/337 283/636/495 441/653/504
f 345/243/231 397/273/260 512/639/498
f 343/244/232 393/475/415 325/216/208
f 34/223/212 325/216/208 393/475/415
f 73/373/347 357/434/43 160/433/388
f 340/355/331 401/356/332 350/422/379
f 156/94/93 455/85/85 16/29/29
f 292/397/362 160/433/388 270/479/417
f 239/4/4 382/341/321 337/5/5
f 50/28/28 245/185/179 133/380/351
f 135/533/381 291/632/406 443/654/407
f 111/167/161 414/166/160 208/416/373
f 429/229/217 232/222/149 253/221/211
f 233/345/323 61/347/325 301/459/367
f 61/347/325 92/532/450 398/93/92
f 128/352/329 130/249/237 296/305/290
f 192/609/361 261/517/410 292/655/362
f 141/152/147 125/104/103 43/413/153
f 266/601/481 212/600/480 233/345/323
f 321/344/203 266/656/481 301/657/367
f 396/658/505 297/429/384 416/659/506
f 405/331/313 396/658/505 416/659/506
f 188/580/474 122/660/135 119/583/273
f 475/268/255 311/209/201 139/631/494
f 459/372/346 497/661/422 73/373/347
f 475/268/255 139/631/494 397/273/260
f 269/476/416 397/273/260 139/631/494
f 375/58/58 370/247/235 346/271/258
f 513/17/17 388/645/248 433/314/225
f 186/183/177 3/259/246 380/258/245
f 436/662/459 329/663/353 384/361/336
f 197/453/401 270/479/417 434/451/276
f 480/399/364 433/237/225 493/215/207
f 464/528/446 264/482/419 374/606/486
f 484/281/268 352/496/430 373/495/429
f 457/37/37 294/20/20 133/664/351
f 135/665/381 443/666/407 419/667/250
f 398/424/92 419/426/250 8/668/90
f 128/352/329 296/305/290 100/236/224
f 285/604/484 43/159/153 404/669/342
f 234/630/493 321/211/203 31/403/366
f 377/375/349 11/448/399 36/374/348
f 9/329/312 110/328/311 436/548/459
f 511/612/400 124/614/380 509/622/411
f 396/658/505 312/191/185 297/429/384
f 513/17/17 387/313/298 371/18/18
f 503/428/383 460/525/444 7/498/432
f 263/670/7 268/267/254 38/16/16
f 250/149/144 106/148/143 402/169/163
f 316/437/390 501/175/169 407/141/138
f 188/580/474 165/174/168 122/660/135
f 466/671/359 268/672/254 263/673/7
f 406/610/489 383/318/302 307/674/507
f 421/675/76 252/676/74 249/677/340
f 385/540/455 363/231/219 378/594/478
f 495/208/200 62/252/239 366/312/297
f 168/519/440 442/490/425 481/608/488
f 404/669/342 506/678/341 285/604/484
f 502/92/91 61/347/325 398/93/92
f 469/417/374 326/444/397 386/296/281
f 234/630/493 31/403/366 81/388/354
f 308/251/238 142/295/141 189/205/197
f 269/476/416 139/631/494 137/679/508
f 482/407/369 269/476/416 137/679/508
f 34/223/212 269/476/416 482/407/369
f 304/465/409 260/276/263 356/471/413
f 68/217/209 484/281/268 493/215/207
f 11/448/399 217/212/204 36/374/348
f 103/652/503 137/679/508 139/631/494
f 430/365/339 249/366/340 429/250/217
f 310/280/267 451/627/492 493/215/207
f 12/1/1 2/3/3 450/275/262
f 332/430/385 176/79/79 416/659/506
f 480/399/364 451/627/492 383/318/302
f 483/227/216 451/627/492 310/280/267
f 352/496/430 484/281/268 68/217/209
f 360/233/221 358/232/220 339/241/229
f 10/443/396 439/651/265 453/626/330
f 307/674/507 383/318/302 451/627/492
f 190/102/101 29/84/84 75/332/314
f 466/393/359 434/680/276 268/267/254
f 157/145/94 156/611/93 294/146/20
f 240/197/191 284/200/194 126/195/189
f 208/416/373 222/333/315 111/167/161
f 105/391/357 13/534/451 440/489/424
f 103/652/503 81/388/354 257/420/377
f 81/388/354 103/652/503 234/630/493
f 146/156/150 185/593/63 211/681/65
f 247/157/151 80/51/51 129/44/44
f 291/682/406 277/527/445 501/219/169
f 272/168/162 421/76/76 161/412/371
f 451/627/492 473/641/500 307/674/507
f 501/175/169 487/683/210 264/482/419
f 283/636/495 383/318/302 406/610/489
f 379/257/244 3/259/246 343/244/232
f 368/319/303 387/400/298 347/317/301
f 342/254/241 35/256/243 372/684/501
f 428/230/218 416/659/506 297/429/384
f 426/62/62 40/513/436 278/539/437
f 264/482/419 487/683/210 164/685/509
f 140/133/130 170/686/270 415/111/110
f 446/301/286 450/275/262 320/358/334
f 135/533/381 398/93/92 92/532/450
f 331/472/414 419/263/250 353/265/252
f 163/176/170 328/52/52 277/633/445
f 331/472/414 309/389/355 81/388/354
f 477/390/356 373/495/429 256/497/431
f 444/334/316 338/302/287 467/304/289
f 488/455/402 199/346/324 233/345/323
f 439/411/265 1/201/2 286/203/41
f 419/263/250 443/463/407 501/175/169
f 383/318/302 283/636/495 438/363/337
f 387/599/298 368/687/303 498/458/403
f 264/482/419 300/688/510 374/606/486
f 263/7/7 371/457/18 265/438/391
f 159/464/408 136/520/441 449/436/389
f 53/564/467 22/12/12 318/15/15
f 167/689/452 263/690/7 265/691/391
f 97/226/215 246/523/442 473/641/500
f 229/292/278 458/186/180 129/44/44
f 289/494/54 157/145/94 487/218/210
f 445/297/282 446/301/286 320/358/334
f 315/585/477 90/550/461 335/269/256
f 257/420/377 477/390/356 256/497/431
f 483/227/216 97/226/215 473/641/500
f 473/641/500 246/523/442 307/674/507
f 387/400/298 480/399/364 347/317/301
f 378/594/478 360/233/221 432/638/497
f 223/294/280 294/20/20 39/19/19
f 207/204/196 142/295/141 223/294/280
f 304/465/409 410/504/435 499/307/292
f 164/685/509 487/683/210 142/295/141
f 227/524/443 97/226/215 353/265/252
f 227/524/443 353/265/252 162/264/251
f 406/610/489 307/674/507 246/523/442
f 309/389/355 331/472/414 131/225/214
f 99/239/227 319/238/226 283/636/495
f 512/639/498 269/476/416 393/475/415
f 35/256/243 399/255/242 400/311/296
f 498/692/403 368/319/303 342/254/241
f 189/205/197 142/295/141 207/204/196
f 263/394/7 70/693/9 37/392/358
f 70/694/9 184/369/343 37/452/358
f 250/149/144 351/370/344 359/299/284
f 197/453/401 37/452/358 184/369/343
f 404/368/342 169/695/405 492/398/363
f 197/453/401 492/398/363 292/397/362
f 182/322/305 127/128/125 115/106/105
f 158/607/487 223/294/280 39/19/19
f 74/97/96 417/190/184 510/192/186
f 432/638/497 489/637/496 323/640/499
f 464/528/446 244/142/139 264/482/419
f 39/19/19 412/21/21 168/519/440
f 182/322/305 115/106/105 230/224/213
f 103/652/503 482/407/369 137/679/508
f 99/239/227 406/610/489 227/524/443
f 17/542/456 494/557/111 415/696/110
f 486/419/376 359/299/284 445/297/282
f 399/255/242 441/653/504 452/206/198
f 260/276/263 217/212/204 11/448/399
f 490/549/460 436/548/459 110/328/311
f 404/368/342 197/453/401 184/369/343
f 334/279/266 483/227/216 310/280/267
f 192/697/361 492/698/363 169/461/405
f 167/536/452 138/535/8 263/7/7
f 164/685/509 308/251/238 495/208/200
f 300/688/510 164/685/509 495/208/200
f 300/688/510 495/208/200 374/606/486
f 316/437/390 254/410/370 227/524/443
f 162/264/251 316/437/390 227/524/443
f 234/630/493 103/652/503 139/631/494
f 319/238/226 422/240/228 215/699/511
f 39/19/19 168/519/440 481/608/488
f 441/653/504 319/238/226 215/699/511
f 399/255/242 452/206/198 400/311/296
f 321/211/203 234/630/493 311/209/201
f 211/681/65 195/118/116 146/156/150
f 411/700/283 504/619/291 511/701/400
f 402/169/163 351/370/344 250/149/144
f 270/702/417 427/703/274 434/680/276
f 95/602/482 54/597/479 63/109/108
f 81/704/354 31/705/366 301/657/367
f 81/704/354 301/657/367 502/706/91
f 259/707/288 153/708/178 467/709/289
f 296/305/290 220/364/338 30/272/259
f 337/5/5 497/661/422 459/372/346
f 422/240/228 209/650/502 215/699/511
f 263/670/7 38/16/16 371/18/18
f 257/420/377 256/497/431 235/406/368
f 462/207/199 452/206/198 215/699/511
f 215/699/511 452/206/198 441/653/504
f 340/355/331 349/315/299 344/274/261
f 399/255/242 438/363/337 441/653/504
f 143/198/192 123/57/57 109/56/56
f 372/684/501 35/256/243 205/123/120
f 372/642/501 391/531/449 342/710/241
f 5/439/392 265/438/391 391/531/449
f 429/250/217 240/197/191 241/196/190
f 138/711/8 506/367/341 70/694/9
f 276/712/393 179/541/433 216/285/272
f 158/607/487 39/19/19 481/608/488
f 207/204/196 158/607/487 394/179/173
f 422/240/228 407/141/138 209/650/502
f 209/650/502 104/605/485 215/699/511
f 462/207/199 215/699/511 104/605/485
f 391/713/449 498/692/403 342/254/241
f 438/363/337 342/254/241 368/319/303
f 420/359/335 418/310/295 366/312/297
f 212/600/480 55/117/115 488/455/402
f 167/536/452 265/438/391 276/440/393
f 216/285/272 138/711/8 276/712/393
f 203/284/271 506/367/341 138/711/8
f 308/251/238 164/685/509 142/295/141
f 366/312/297 452/206/198 495/208/200
f 384/714/336 329/445/353 274/291/277
f 198/266/253 375/58/58 346/271/258
f 463/116/114 448/245/233 175/75/75
f 206/124/121 418/310/295 144/178/172
f 508/125/122 372/684/501 205/123/120
f 121/620/491 303/53/53 465/395/360
f 441/653/504 283/636/495 319/238/226
f 470/414/372 43/413/153 125/104/103
f 169/461/405 470/414/372 491/103/102
f 312/191/185 509/469/411 297/429/384
f 111/167/161 41/335/317 279/165/159
f 462/207/199 374/606/486 495/208/200
f 317/715/320 243/716/394 132/717/404
f 209/650/502 464/528/446 104/605/485
f 203/284/271 138/711/8 216/285/272
f 472/326/309 206/124/121 118/180/174
f 372/642/501 508/718/122 19/61/61
f 391/531/449 372/642/501 116/60/60
f 323/640/499 271/603/483 322/98/97
f 499/307/292 468/309/294 304/465/409
f 22/12/12 53/564/467 44/13/13
f 108/719/512 178/720/438 27/629/439
f 179/499/433 5/439/392 238/538/454
f 52/153/148 112/721/118 88/151/146
f 391/531/449 116/60/60 5/439/392
f 428/230/218 332/430/385 416/659/506
f 117/161/155 52/598/148 141/722/147
f 87/503/275 268/267/254 434/680/276
f 105/391/357 472/326/309 13/534/451
f 420/359/335 189/205/197 144/178/172
f 117/161/155 218/160/154 461/582/476
f 434/680/276 466/393/359 37/392/358
f 448/245/233 306/351/328 282/246/234
f 254/410/370 316/437/390 407/141/138
f 262/556/6 494/559/111 239/723/4
f 278/589/437 243/724/394 317/715/320
f 296/305/290 241/196/190 220/364/338
f 402/169/163 106/148/143 110/328/311
f 481/608/488 442/490/425 13/534/451
f 118/180/174 481/608/488 13/534/451
f 184/369/343 70/694/9 506/367/341
f 300/688/510 264/482/419 164/685/509
f 457/37/37 23/483/420 67/38/38
f 462/207/199 104/605/485 374/606/486
f 163/176/170 225/127/124 465/395/360
f 290/78/78 312/191/185 405/331/313
f 192/697/361 169/461/405 27/629/439
f 257/420/377 81/388/354 477/390/356
f 27/629/439 491/103/102 108/719/512
f 112/725/118 49/35/35 58/34/34
f 140/133/130 285/604/484 170/686/270
f 122/660/135 165/174/168 25/575/470
f 117/161/155 141/722/147 43/159/153
f 352/496/430 235/406/368 256/497/431
f 216/285/272 17/542/456 415/696/110
f 216/285/272 415/696/110 170/283/270
f 285/604/484 140/133/130 218/160/154
f 66/32/32 98/110/109 46/22/22
f 305/199/193 284/200/194 65/628/490
f 488/455/402 28/39/39 92/532/450
f 86/81/81 75/332/314 172/82/82
f 182/322/305 298/73/73 177/71/71
f 431/342/202 509/622/411 267/343/322
f 174/546/458 108/726/512 93/727/513
f 174/546/458 178/516/438 108/726/512
f 108/719/512 491/103/102 93/728/513
f 57/139/136 154/171/165 204/537/453
f 85/59/59 44/13/13 24/135/132
f 461/582/476 140/133/130 114/571/469
f 461/582/476 114/571/469 117/161/155
f 337/646/5 317/510/320 132/460/404
f 251/126/123 121/620/491 465/395/360
f 74/97/96 323/640/499 322/98/97
f 219/64/64 93/727/513 211/65/65
f 407/141/138 102/143/140 209/650/502
f 49/35/35 114/571/469 84/187/181
f 145/729/117 88/151/146 112/721/118
f 336/577/473 392/262/249 194/193/187
f 152/105/104 88/151/146 145/729/117
f 152/105/104 195/730/116 93/728/513
f 211/731/65 93/728/513 195/730/116
f 186/348/177 476/578/421 281/202/195
f 152/105/104 145/729/117 195/730/116
f 86/81/81 173/66/66 149/86/86
f 454/189/183 255/164/158 295/324/307
f 219/64/64 174/546/458 93/727/513
f 210/33/33 49/35/35 84/187/181
f 112/732/118 52/733/148 49/734/35
f 440/489/424 13/534/451 442/490/425
f 97/226/215 131/225/214 353/265/252
f 200/68/68 120/67/67 212/600/480
f 491/103/102 470/414/372 125/104/103
f 99/239/227 227/524/443 254/410/370
f 249/478/340 252/74/74 230/224/213
f 203/284/271 170/283/270 285/647/484
f 318/15/15 60/31/31 54/597/479
f 93/728/513 491/103/102 152/105/104
f 182/322/305 230/224/213 252/74/74
f 155/325/308 151/512/318 19/634/61
f 416/659/506 176/79/79 405/331/313
f 396/658/505 405/331/313 312/191/185
f 91/177/171 163/176/170 277/633/445
f 146/156/150 195/118/116 112/120/118
f 460/525/444 367/427/382 496/350/327
f 241/196/190 143/198/192 30/272/259
f 58/155/34 210/286/33 146/156/150
f 239/4/4 196/553/462 248/552/448
f 381/357/333 2/3/3 439/735/265
f 191/173/167 26/113/112 148/565/465
f 63/109/108 54/597/479 60/31/31
f 132/736/404 453/737/330 409/560/423
f 9/409/312 384/361/336 437/360/69
f 7/498/432 460/525/444 410/504/435
